<?xml version="1.0" encoding="UTF-8"?>
<!DOCTYPE svg PUBLIC "-//W3C//DTD SVG 1.1//EN" "http://www.w3.org/Graphics/SVG/1.1/DTD/svg11.dtd">
<!-- Creator: CorelDRAW 2019 (64-Bit) -->
<svg xmlns="http://www.w3.org/2000/svg" xml:space="preserve" width="199.043mm" height="56.1678mm" version="1.1" style="shape-rendering:geometricPrecision; text-rendering:geometricPrecision; image-rendering:optimizeQuality; fill-rule:evenodd; clip-rule:evenodd"
viewBox="0 0 198.0769 55.8952"
 xmlns:xlink="http://www.w3.org/1999/xlink"
 xmlns:xodm="http://www.corel.com/coreldraw/odm/2003">
 <defs>
  <style type="text/css">
   <![CDATA[
    .str0 {stroke:black;stroke-width:0.0758;stroke-miterlimit:22.9256}
    .fil0 {fill:#FEFEFE}
    .fil1 {fill:black}
    .fil2 {fill:#730C07}
    .fil3 {fill:#2F8600}
    .fil4 {fill:#33178A}
   ]]>
  </style>
 </defs>
 <g id="Layer_x0020_1">
  <metadata id="CorelCorpID_0Corel-Layer"/>
  <g id="_831800784">
   <polygon class="fil0 str0" points="0.0379,0.0379 198.039,0.0379 198.039,55.8573 0.0379,55.8573 "/>
   <path class="fil1" d="M4.1189 3.7241l189.839 0 0 48.4471 -189.839 0 0 -48.4471zm140.6344 40.1202l0 0 38.1768 0c0.6364,0 1.1191,-0.669 1.1191,-1.2505l0 -13.4943 0 -2.3037 0 -13.4943c0,-0.5815 -0.4827,-1.2505 -1.1191,-1.2505l-38.1768 0 -14.7464 0 -38.1767 0c-0.6364,0 -1.1191,0.669 -1.1191,1.2505l0 13.4943 0 2.3037 0 13.4943c0,0.5815 0.4827,1.2505 1.1191,1.2505l38.1767 0 14.7464 0zm-83.6637 -13.0003l0 0 0 11.5851c0,2.0186 2.1285,3.6862 3.6862,3.6862l15.6663 0 0 -9.6104 -3.4228 0 0 5.9242 -11.1903 0c-1.0532,0 -1.0532,-0.9983 -1.0532,-1.8431l0 -9.742 0 -5.6609 0 -9.742c0,-0.8448 0,-1.8431 1.0532,-1.8431l11.1903 0 0 5.9242 3.4228 0 0 -9.6104 -15.6663 0c-1.5577,0 -3.6862,1.6677 -3.6862,3.6862l0 11.5851 0 5.6609zm-22.7086 -20.9322l0 0 -2.7315 0 0 3.6862 2.7315 0 0 4.6718 0 2.4577 0 6.3526 0 2.0053 0 13.3317 -2.7315 0 0 3.6982 2.7315 0 3.4887 0 2.6661 0 0 -3.6982 -2.6661 0 0 -13.3317 12.3753 0c2.0077,0 3.357,-2.0954 3.357,-3.6861l0 -4.6718 0 -2.4577 0 -4.6718c0,-1.5907 -1.3493,-3.6862 -3.357,-3.6862l-12.3753 0 -3.4887 0zm3.4887 10.8158l0 0 0 4.7768 11.75 0c0.4224,0 0.6253,-0.3156 0.6253,-1.0412l0 -3.7356 0 -2.3527 0 -3.7356c0,-0.7257 -0.2028,-1.0412 -0.6253,-1.0412l-11.75 0 0 4.7768 0 2.3527zm-29.1934 10.1165l0 0 0 11.5851c0,2.0186 2.1284,3.6862 3.6861,3.6862l15.6663 0 0 -9.6104 -3.4228 0 0 5.9242 -11.1902 0c-1.0533,0 -1.0533,-0.9983 -1.0533,-1.8431l0 -9.742 0 -5.6609 0 -9.742c0,-0.8448 0,-1.8431 1.0533,-1.8431l11.1902 0 0 5.9242 3.4228 0 0 -9.6104 -15.6663 0c-1.5577,0 -3.6861,1.6677 -3.6861,3.6862l0 11.5851 0 5.6609z"/>
   <g>
    <path class="fil2" d="M110.4233 27.3398l-2.4575 0 -10.6201 0c-0.5263,0 -1.0527,-0.8409 -1.0527,-1.3602l0 -2.7648 0 -1.141 0 -2.7648c0,-0.5193 0.5263,-1.3602 1.0527,-1.3602l10.6201 0 2.4575 0 10.6202 0c0.5264,0 1.0526,0.8409 1.0526,1.3602l0 2.7648 0 1.141 0 2.7648c0,0.5193 -0.5261,1.3602 -1.0526,1.3602l-10.6202 0z"/>
    <path class="fil2" d="M110.4233 38.4861l-2.4575 0 -10.6201 0c-0.5263,0 -1.0527,-0.8409 -1.0527,-1.3602l0 -2.7648 0 -1.141 0 -2.7648c0,-0.5193 0.5263,-1.3602 1.0527,-1.3602l10.6201 0 2.4575 0 10.6202 0c0.5264,0 1.0526,0.8409 1.0526,1.3602l0 2.7648 0 1.141 0 2.7648c0,0.5193 -0.5261,1.3602 -1.0526,1.3602l-10.6202 0z"/>
   </g>
   <g>
    <path class="fil3" d="M138.6947 27.3398l-2.4575 0 -10.6202 0c-0.5263,0 -1.0527,-0.8409 -1.0527,-1.3602l0 -2.7648 0 -1.141 0 -2.7648c0,-0.5193 0.5263,-1.3602 1.0527,-1.3602l10.6202 0 2.4575 0 10.6202 0c0.5263,0 1.0527,0.8409 1.0527,1.3602l0 2.7648 0 1.141 0 2.7648c0,0.5193 -0.5263,1.3602 -1.0527,1.3602l-10.6202 0z"/>
    <path class="fil3" d="M138.6947 38.4861l-2.4575 0 -10.6202 0c-0.5263,0 -1.0527,-0.8409 -1.0527,-1.3602l0 -2.7648 0 -1.141 0 -2.7648c0,-0.5193 0.5263,-1.3602 1.0527,-1.3602l10.6202 0 2.4575 0 10.6202 0c0.5263,0 1.0527,0.8409 1.0527,1.3602l0 2.7648 0 1.141 0 2.7648c0,0.5193 -0.5263,1.3602 -1.0527,1.3602l-10.6202 0z"/>
   </g>
   <g>
    <path class="fil4" d="M166.78 27.3398l-2.4577 0 -10.62 0c-0.5265,0 -1.0527,-0.8409 -1.0527,-1.3602l0 -2.7648 0 -1.141 0 -2.7648c0,-0.5193 0.5261,-1.3602 1.0527,-1.3602l10.62 0 2.4577 0 10.62 0c0.5264,0 1.0527,0.8409 1.0527,1.3602l0 2.7648 0 1.141 0 2.7648c0,0.5193 -0.5262,1.3602 -1.0527,1.3602l-10.62 0z"/>
    <path class="fil4" d="M166.78 38.4861l-2.4577 0 -10.62 0c-0.5265,0 -1.0527,-0.8409 -1.0527,-1.3602l0 -2.7648 0 -1.141 0 -2.7648c0,-0.5193 0.5261,-1.3602 1.0527,-1.3602l10.62 0 2.4577 0 10.62 0c0.5264,0 1.0527,0.8409 1.0527,1.3602l0 2.7648 0 1.141 0 2.7648c0,0.5193 -0.5262,1.3602 -1.0527,1.3602l-10.62 0z"/>
   </g>
  </g>
 </g>
</svg>
