<?xml version="1.0" encoding="UTF-8"?>
<!-- Generator: Adobe Illustrator 25.0.0, SVG Export Plug-In . SVG Version: 6.00 Build 0)  -->
<svg enable-background="new 0 0 3840 430.71" version="1.1" viewBox="0 0 3840 430.71" xml:space="preserve" xmlns="http://www.w3.org/2000/svg">
<style type="text/css">
	.st0{fill:#FFCC00;}
	.st1{fill-rule:evenodd;clip-rule:evenodd;fill:#FFCC00;}
	.st2{fill-rule:evenodd;clip-rule:evenodd;fill:#FF0000;}
</style>

	
		<rect class="st0" x="1.09" y=".04" width="245.22" height="303.72"/>
		<rect class="st0" y="338.48" width="620.66" height="92.23"/>
		<path class="st1" d="M550.64,0.04h344l219.61,165.48l-168.72,108.4L550.64,0.04z"/>
		<path class="st1" d="M1752.14,0.04l670.31,430.67h138.67V0.04h-122.61v300.46L1986.15,0.04H1752.14z"/>
		<path class="st1" d="m1749.1 46.12 265.76 170.75v213.85h-266.9l1.14-384.6z"/>
		<path class="st1" d="M1446.76,0.04L972.14,304.99v125.73h247.45V294l424.4-293.95H1446.76z"/>
		<path class="st1" d="m1760.4 5.37 265.76 170.75"/>
		
			<path class="st1" d="m3432 430.71-518.03-226.35 115.34-42.23 190.8 83.33 88.84-32.52 498.38 217.76h-375.33z"/>
			<path class="st2" d="m3204 366.59-153.84-67.22-360.95 131.34h339.6l175.19-64.12z"/>
		
		
			<path class="st2" d="m3097.2 0 518.03 226.35-115.34 42.23-190.8-83.33-88.84 32.52-498.39-217.77h371.73 3.61z"/>
			<path class="st1" d="M3325.21,64.12l153.84,67.22L3840,0l-339.6,0L3325.21,64.12z"/>
		
	

</svg>
