<?xml version="1.0" encoding="UTF-8"?>
<!-- Generator: Adobe Illustrator 25.1.0, SVG Export Plug-In . SVG Version: 6.00 Build 0)  -->
<svg width="2670.3" height="830.01" version="1.1" viewBox="0 0 2670.3 830.01" xml:space="preserve" xmlns="http://www.w3.org/2000/svg">
<style type="text/css">
	.st0{fill:#FFFFFF;}
	.st1{fill:url(#SVGID_1_);}
	.st2{fill:#E4202F;}
	.st3{fill:#6187E5;}
</style>
<g transform="translate(-1169.5 .014561)">
	
		
			
			<path class="st2" d="m1407.9 36c32.2-41.2 98.8-48.2 138.3-13.7 16.2 13.6 27.5 32.4 33.3 52.6 73.1 251.6 146.6 503.1 219.6 754.8-43.2 0-86.3-0.1-129.5 0-20.4-69.4-40.2-138.9-60.3-208.3-83.5-0.2-166.9 0-250.3-0.1-20.4 69.4-40.6 138.9-60.7 208.4-42.9-0.1-85.8 0-128.8-0.1 69.5-240 139-480.1 208.8-720 8.4-25.1 11.5-53.1 29.6-73.6m76.2 154.2c-30.6 104.2-60.6 208.7-91 313 60.7 0.3 121.3 0.1 181.9 0.1-30.3-104.4-60.5-208.8-90.9-313.1z"/>
			<path class="st2" d="m2317.1 41.4c22.5-32.6 66-48.5 104.2-38.4 35.1 8.1 61.9 38.3 71.1 72.3 73.1 251.4 146.4 502.8 219.4 754.2-43.2 0.3-86.4 0-129.6 0.2-20.1-69.4-40-139-60.2-208.4-83.3 0-166.6-0.1-249.9 0.1-19.9 69.5-40.5 138.8-60.4 208.3h-128.6c69.4-241.4 139.7-482.5 209.7-723.7 7.3-21.8 10.2-45.8 24.3-64.6m-10.5 461.9c60.4 0.1 120.8 0 181.2 0-30.1-104.6-60.6-209-90.5-313.6-30.3 104.5-60.7 209-90.7 313.6z"/>
			<path class="st2" d="m1702.5 1.7h468.4v126.3c-57.5 0-114.9-0.1-172.4 0v701.6h-123.5v-701.6c-57.5-0.1-114.9 0-172.4 0-0.1-42.1-0.1-84.1-0.1-126.3z"/>
			<path class="st2" d="m2849.1 6.9c11.9-4.1 24.5-5.5 37.1-5.2 49.2 0.2 98.5 0 147.7 0.1 82.9 1.5 162 53 197.9 127.6 24.8 48.4 27.4 104.8 21.1 158-4.3 55.6-27.7 111.3-70.4 148.2-22.6 20.1-50.7 32.3-74.9 50.3-13.3 10.1-13.9 29.7-7.1 43.8 65.3 100.9 133.3 200.2 199.9 300.2-48.8 0.1-97.6-0.1-146.4 0.1-63.9-95.9-127.1-192.3-190.7-288.4-18.7-27.3-23.8-63.6-12.6-94.7 8.7-23.9 29.7-41.4 53-50.5 44.5-17 88.3-43.6 112.9-85.6 18.7-31.5 17.8-70.4 9.3-105-9.9-44.8-53.5-80.1-99.7-78.5-31.9 0.2-63.8-0.1-95.6 0.1-14.4-0.3-28 12.2-27.8 26.8-0.2 225.2 0.1 450.5-0.1 675.7-41.5-0.1-82.9 0-124.4 0-0.1-242.5 0.1-484.9-0.1-727.4 0.4-42.7 30.7-82.7 70.9-95.6z"/>
			<path class="st2" d="m3365.6 1.7h130.9c0 276 0.1 552-0.1 828-43.6-0.1-87.2 0-130.9 0 0.1-276 0.1-552 0.1-828z"/>
		
	
	
		<path class="st2" d="m3620.2 688h36.7v80l42.5 7.6c-4.1-6.4-9-14.8-9-33.5 0-48.6 40.5-71.9 72.2-71.9 35.2 0 77.2 27.1 77.2 80.1 0 41.6-25.9 73.7-63.2 79.5v-43.7c14.9-4.7 25-19.2 25-34.6 0-20.4-17.2-37.8-37.9-37.8-19.8 0-37.9 15.1-37.9 38.1 0 10.2 3.5 23.9 20.4 33.5l-8.7 35.2-117.3-18.9z"/>
		<path class="st2" d="m3801.6 646.3c-18.9-21-37.6-41.9-56.5-62.9-18.9-21.5-33.8-38.7-58.5-39-21.2 0-32.3 13.4-32.3 31.2 0 21 18.9 29.7 41.1 30v41.6c-16.6-0.6-34.4-3.2-50.4-15.1-24.2-16.9-28.8-44.8-28.8-60.3 0-45.1 31.1-70.8 66.7-70.8 25 0.3 42.8 9.3 67 34.7 16.3 16.9 32.6 34.1 49.2 51.2v-87.1h36.7v146.5z"/>
		<path class="st2" d="m3729.6 475.7c-69 0-113.6-53-113.6-113 0-65.2 50.7-113.3 111.8-113.3s111.8 47.7 111.8 113.6c0 66.1-52.1 112.7-109.8 112.7zm-1.7-43.3c39.3 0 73.7-28.2 73.7-70.2 0-43.7-37.9-69.3-73.4-69.3-36.1 0-73.9 25.6-73.9 69.6 0 43.1 35.5 69.9 73.4 69.9z"/>
		<path class="st2" d="m3729.6 228c-69 0-113.6-53-113.6-113 0-65.2 50.7-113.3 111.8-113.3s111.8 47.8 111.8 113.6c0 66.1-52.1 112.7-109.8 112.7zm-1.7-43.4c39.3 0 73.7-28.2 73.7-70.2 0-43.7-37.9-69.3-73.4-69.3-36.1 0-73.9 25.6-73.9 69.6 0 43.1 35.5 69.9 73.4 69.9z"/>
	
</g>
</svg>
