<?xml version="1.0" encoding="utf-8"?>
<!-- Generator: Adobe Illustrator 25.0.0, SVG Export Plug-In . SVG Version: 6.00 Build 0)  -->
<svg version="1.1" id="Layer_1" xmlns="http://www.w3.org/2000/svg" xmlns:xlink="http://www.w3.org/1999/xlink" x="0px" y="0px"
	 viewBox="0 0 3840 1265.9" style="enable-background:new 0 0 3840 1265.9;" xml:space="preserve">
<style type="text/css">
	.st0{fill:#0F2166;}
	.st1{fill:#FD2537;}
	.st2{fill:url(#SVGID_1_);stroke:#000000;stroke-width:4.8278;stroke-linecap:round;stroke-linejoin:round;}
	.st3{fill:url(#SVGID_2_);stroke:#000000;stroke-width:4.8278;stroke-linecap:round;stroke-linejoin:round;}
	.st4{fill:url(#SVGID_3_);stroke:#000000;stroke-width:4.8278;stroke-linecap:round;stroke-linejoin:round;}
	.st5{fill:url(#SVGID_4_);stroke:#000000;stroke-width:4.8278;stroke-linecap:round;stroke-linejoin:round;}
	.st6{fill:#8B8B8B;}
	.st7{fill:url(#SVGID_5_);}
	.st8{fill:url(#SVGID_6_);}
	.st9{fill:url(#SVGID_7_);}
	.st10{fill:url(#SVGID_8_);}
	.st11{fill:url(#SVGID_9_);}
	.st12{fill:url(#SVGID_10_);}
	.st13{fill:url(#SVGID_11_);}
	.st14{fill:url(#SVGID_12_);}
	.st15{fill:url(#SVGID_13_);}
	.st16{fill:url(#SVGID_14_);}
	.st17{fill:url(#SVGID_15_);}
	.st18{fill:#FFFFFF;}
	.st19{fill:url(#SVGID_16_);stroke:#FFFFFF;stroke-width:4.8278;stroke-linecap:round;stroke-linejoin:round;}
	.st20{fill:url(#SVGID_17_);stroke:#FFFFFF;stroke-width:4.8278;stroke-linecap:round;stroke-linejoin:round;}
	.st21{fill:url(#SVGID_18_);stroke:#FFFFFF;stroke-width:4.8278;stroke-linecap:round;stroke-linejoin:round;}
	.st22{fill:url(#SVGID_19_);stroke:#FFFFFF;stroke-width:4.8278;stroke-linecap:round;stroke-linejoin:round;}
	.st23{fill:url(#SVGID_20_);}
	.st24{fill:url(#SVGID_21_);}
	.st25{fill:url(#SVGID_22_);}
	.st26{fill:url(#SVGID_23_);}
	.st27{fill:url(#SVGID_24_);}
	.st28{fill:url(#SVGID_25_);}
	.st29{fill:url(#SVGID_26_);}
	.st30{fill:url(#SVGID_27_);}
	.st31{fill:url(#SVGID_28_);}
	.st32{fill:url(#SVGID_29_);}
	.st33{fill:url(#SVGID_30_);}
	.st34{fill:url(#SVGID_31_);}
	.st35{fill:url(#SVGID_32_);}
	.st36{fill:url(#SVGID_33_);}
	.st37{fill:url(#SVGID_34_);}
	.st38{fill:url(#SVGID_35_);}
	.st39{fill:url(#SVGID_36_);}
</style>
<g>
	<g>
		<g>
			<linearGradient id="SVGID_1_" gradientUnits="userSpaceOnUse" x1="375.6881" y1="705.7227" x2="595.2592" y2="1308.9893">
				<stop  offset="2.983562e-07" style="stop-color:#6D83EE"/>
				<stop  offset="0.2399" style="stop-color:#0044C6"/>
				<stop  offset="1" style="stop-color:#84CD28"/>
			</linearGradient>
			<polygon style="fill:url(#SVGID_1_);" points="411.9,761.8 221.6,761.8 559.1,1252.9 749.4,1252.9 			"/>
		</g>
		<g>
			<g>
				<polygon class="st18" points="728.8,1252.9 749.4,1252.9 411.9,761.8 391.3,761.8 				"/>
			</g>
		</g>
		<g>
			<linearGradient id="SVGID_2_" gradientUnits="userSpaceOnUse" x1="85.0241" y1="754.6427" x2="455.9456" y2="1278.6265">
				<stop  offset="2.983562e-07" style="stop-color:#6D83EE"/>
				<stop  offset="0.2399" style="stop-color:#0044C6"/>
				<stop  offset="1" style="stop-color:#84CD28"/>
			</linearGradient>
			<polygon style="fill:url(#SVGID_2_);" points="190.3,761.8 0,761.8 337.5,1252.9 527.8,1252.9 			"/>
		</g>
		<g>
			<g>
				<polygon class="st18" points="507.2,1252.9 527.8,1252.9 190.3,761.8 169.7,761.8 				"/>
			</g>
		</g>
		<linearGradient id="SVGID_3_" gradientUnits="userSpaceOnUse" x1="337.5017" y1="626.445" x2="1388.9207" y2="626.445">
			<stop  offset="3.782731e-07" style="stop-color:#8DBC30"/>
			<stop  offset="0.3144" style="stop-color:#E4D300"/>
			<stop  offset="0.4876" style="stop-color:#E6970C"/>
			<stop  offset="0.6581" style="stop-color:#E86416"/>
			<stop  offset="0.8057" style="stop-color:#EA3F1E"/>
			<stop  offset="0.9246" style="stop-color:#EB2822"/>
			<stop  offset="1" style="stop-color:#EB2024"/>
		</linearGradient>
		<polygon style="fill:url(#SVGID_3_);" points="1198.6,0 337.5,1252.9 527.8,1252.9 1388.9,0 		"/>
		<linearGradient id="SVGID_4_" gradientUnits="userSpaceOnUse" x1="437.6794" y1="1079.5419" x2="1731.8579" y2="173.3483">
			<stop  offset="3.782731e-07" style="stop-color:#8DBC30"/>
			<stop  offset="0.3144" style="stop-color:#E4D300"/>
			<stop  offset="0.4876" style="stop-color:#E6970C"/>
			<stop  offset="0.6581" style="stop-color:#E86416"/>
			<stop  offset="0.8057" style="stop-color:#EA3F1E"/>
			<stop  offset="0.9246" style="stop-color:#EB2822"/>
			<stop  offset="1" style="stop-color:#EB2024"/>
		</linearGradient>
		<polygon style="fill:url(#SVGID_4_);" points="1420.1,0 559.1,1252.9 749.4,1252.9 1610.5,0 		"/>
		<g>
			<polygon class="st18" points="1589.9,0 728.8,1252.9 749.4,1252.9 1610.5,0 			"/>
		</g>
		<g>
			<polygon class="st18" points="1368.3,0 507.2,1252.9 527.8,1252.9 1388.9,0 			"/>
		</g>
	</g>
	<g>
		<g>
			<path class="st18" d="M1282,1043.1h-183.9l-28.5,43.1c-8,12.8-13.8,22.3-17.5,28.4c-7.4,12.2-12.6,22-15.6,29.3
				c-7.4,13.5-11,24.8-11,33.9c0,17.7,17.9,28.7,53.9,33c16.4,2.5,24.7,9.5,24.7,21.1c0,14.1-9.7,21.1-29.2,21.1l-34.7-2.2
				l-60.3-3.3l-77.6,5.5h-24.6c-14.6,0-21.9-5.5-21.9-16.4c0-9.1,2.9-15.7,8.7-19.6c5.8-4,16.8-6.8,32.9-8.7
				c16.1-1.8,29.7-8.5,40.6-20.1l35.6-44.7l15.5-23.7l16.4-22.8l16.4-23.7l288.5-410.8c14.6-21.9,25-35.3,31-40.2
				c6.1-4.9,15.5-7.3,28.3-7.3c14,0,23.6,3.7,28.8,11c5.2,7.3,7.8,23.2,7.8,47.6l28.3,457.8c0,18.4,1.1,33.1,3.3,44.1
				c1.9,9.4,6.5,18,13.1,24.9l0,0c5.8,6.2,12.9,11.2,21,13.7c10.9,3.5,16.3,9.7,16.3,18.9c0,13.4-9.1,20.1-27.4,20.1l-29.2-2.7
				l-53.8-2.7c-17,0-35.8,0.7-56.1,2.1c-20.4,1.4-42.2,2.5-65.3,3.4h-30.1c-14,0-21-5.8-21-17.3c0-7.9,2.9-13.7,8.7-17.3
				c5.8-3.7,16.6-6.4,32.4-8.2c15.8-1.8,26.5-6.2,32-13.2c5.5-7,8.2-19,8.2-36.1v-37.4L1282,1043.1z M1278.3,997.5l-8.2-211.1
				l-142.7,211.1H1278.3z"/>
			<path class="st18" d="M2677.9,730.9l-115,400.8c-5.5,19.5-8.2,34.4-8.2,44.7c0,22.5,12.2,33.8,36.5,33.8
				c21.9,0,32.9,6.8,32.9,20.5c0,13.1-9.4,19.6-28.3,19.6h-52.9l-98.6-3.6c-18.9,0-33.2,0.3-42.9,0.9c-9.7,0.6-33.8,2.7-72.1,6.4
				h-3.7c-15.8,0-23.7-6.1-23.7-18.3c0-7.3,2.7-12.3,8.2-15.1s17.9-6.1,37.4-10c19.5-4,31.3-9.1,35.6-15.5
				c4.2-6.4,11.3-26.9,21-61.6l114.1-398.9c4.2-14.6,6.4-24.3,6.4-29.2c0-15.8-11.3-23.7-33.8-23.7c-19.5,0-29.2-5.8-29.2-17.5
				c0-7,2.4-12.5,7.3-16.6c4.9-4.1,11.6-6.1,20.1-6.1h42c2.4,0,9.4,0,21,0c11.6,0,21.3,0,29.2,0c58.4,0,99.2-1.5,122.3-4.4l48.4-2.9
				c12.2,0,18.3,5.8,18.3,17.3c0,7.9-3.1,13.7-9.1,17.3c-6.1,3.6-17.2,6.8-33.3,9.6c-16.1,2.7-26.9,7.2-32.4,13.2
				C2689.7,697.7,2683.9,710.8,2677.9,730.9z"/>
			<path class="st18" d="M3238.4,1075.1c0,0-19.4,68.2-28.3,98.9c-10.5,35.8-109.4,92-230,92c-91.3,0-165.6-22.8-222.8-68.5
				c-57.2-45.6-85.8-104.7-85.8-177.1c0-57.8,17.3-112.6,52-164.3c34.7-51.7,83.7-96.2,147-133.3c51.7-30.4,107.6-54.2,167.5-71.2
				c59.9-17,118.8-25.6,176.7-25.6c38.9,0,73.3,3.3,103.2,9.8c15.2,3.6,22.8,10.1,22.8,19.6c0,5.4-1.8,12.3-5.5,20.8l-22.8,69.4
				c-9.1,31.7-21,47.5-35.6,47.5c-15.8,0-23.7-12.5-23.7-37.4l1.8-46.6c0-15.8-3.2-26.9-9.6-33.3c-6.4-6.4-17.2-9.6-32.4-9.6
				c-39,0-78.8,7.9-119.6,23.8c-40.8,15.8-79.4,38.4-115.9,67.7c-43.2,34.7-77.3,77.4-102.3,128c-25,50.6-37.4,103-37.4,157.3
				c0,56.1,14.6,100.6,43.8,133.5c29.2,32.9,69.1,49.4,119.6,49.4c15.2,0,25.7-2.3,31.5-6.8c5.8-4.5,11.1-15,16-31.4l33.8-119.1
				c2.4-6.7,3.6-14.3,3.6-22.7c0-13.3-2.7-22-8.2-25.9s-20.1-7.4-43.8-10.5c-12.8,0-19.2-6.1-19.2-18.3c0-13.4,10.6-20.1,32-20.1
				l45.6,0.9l82.2,2.7c5.5,0,9.4,0,11.9,0c4.9,0,8.2,0,10,0c26.8,0,50.8-1.2,72.1-3.7h43.8c15.2,0,22.8,5.2,22.8,15.7
				c0,14.6-12.5,23-37.4,25.3c-15.8,0-28,4.6-36.5,13.7C3252.7,1034.9,3245.1,1051.3,3238.4,1075.1z"/>
			<path class="st18" d="M3615.4,1043.1h-183.9l-28.5,43.1c-8,12.8-13.8,22.3-17.5,28.4c-7.4,12.2-12.6,22-15.6,29.3
				c-7.4,13.5-11,24.8-11,33.9c0,17.7,17.9,28.7,53.9,33c16.4,2.5,24.7,9.5,24.7,21.1c0,14.1-9.7,21.1-29.2,21.1l-34.7-2.2
				l-28.1-1.5c-21.4-1.2-42.9-1.1-64.3,0.2l-57.9,3.5c-14.6,0-21.9-5.5-21.9-16.4c0-9.1,2.9-15.7,8.7-19.6c5.8-4,16.8-6.8,32.9-8.7
				c16.1-1.8,17.5-8.5,28.4-20.1l35.6-44.7l15.5-23.7l16.4-22.8l16.4-23.7l288.5-410.8c14.6-21.9,25-35.3,31-40.2
				c6.1-4.9,15.5-7.3,28.3-7.3c14,0,23.6,3.7,28.8,11c5.2,7.3,7.8,23.2,7.8,47.6l28.3,457.8c0,31.1,3.2,51.7,9.6,61.8
				c6.4,10.1,18.4,16.3,36.1,18.8c17.6,2.4,26.5,9.5,26.5,21.1c0,13.4-9.1,20.1-27.4,20.1l-29.2-2.7l-72.1-2.7
				c-17,0-35.8,0.7-56.1,2.1c-20.4,1.4-42.2,2.5-65.3,3.4h-30.1c-14,0-21-5.8-21-17.3c0-7.9,2.9-13.7,8.7-17.3
				c5.8-3.7,16.6-6.4,32.4-8.2c15.8-1.8,26.5-6.2,32-13.2c5.5-7,8.2-19,8.2-36.1v-37.4L3615.4,1043.1z M3611.8,997.5l-8.2-211.1
				l-142.7,211.1H3611.8z"/>
		</g>
		<path class="st18" d="M2156.7,764.6l-288.5,430c-14,21.3-24.4,34.7-31,40.2c-6.7,5.5-15.8,8.2-27.4,8.2c-12.2,0-20.4-2.7-24.6-8.2
			c-4.3-5.5-6.4-17.4-6.4-35.7l-14.6-435.6l-92.2,251.3l-14.6,49.5c-11.6,38.5-18.3,61.9-20.1,70.1c-1.8,8.2-2.7,18.8-2.7,31.6
			c0,14.7,3.5,24.3,10.5,28.9c7,4.6,23.9,9,50.7,13.3c15.2,1.8,22.8,8.5,22.8,20.2c0,14.7-9.7,22-29.2,22l-33.8-3.3l-53.9-2.2
			l-70.9,2.7c-15.8,0-23.7-6.1-23.7-18.3c0-9.9,8-17.2,24.1-21.8c9.1-2.7,17.3-8.1,23.7-15.1c3.2-3.5,5.8-6.4,5.8-6.4
			c6.7-8.2,19.8-39.4,39.3-93.6l118.7-334.1c11-32.9,16.4-53.2,16.4-61.2c0-6.7-2.9-11.6-8.7-14.6c-5.8-3-17.5-5.9-35.1-8.7
			c-17.7-2.7-26.5-9.3-26.5-19.6c0-5.5,2.4-10.3,7.3-14.6c4.9-4.3,10.6-6.4,17.3-6.4l33.8,3.7h45.6h45.6h63.9h16.4
			c7.3,0,11.6,1.2,12.8,3.6c1.8,3.1,2.7,10.7,2.7,22.8l14.6,373.3L2171.3,656c6.1-9.3,10.3-14.8,12.8-16.6c2.4-1.7,7.3-2.6,14.6-2.6
			h9.1c11,0,22.5,0,34.7,0c12.2,0,25.6,0,40.2,0h68.5h29.2c13.4,0,20.1,5.5,20.1,16.4c0,15.2-10.5,23.9-31.5,26
			c-21,2.1-34.1,6.4-39.3,12.7c-5.2,6.4-10.5,20.8-16,43.3l-89.5,372.8c-2.4,10.3-4.9,22.8-7.3,37.4c-2.4,14.6-3.6,24.3-3.6,29.2
			c0,10.3,2.9,17.9,8.7,22.8c5.8,4.9,16.6,8.5,32.4,10.9c15.8,2.4,23.7,9.4,23.7,21c0,14-10.7,21-32,21H2217
			c-43.2-4.9-78.5-7.3-105.9-7.3c-30.4,0-56.6,1.2-78.5,3.7l-45.6,3.6c-15.2,0-22.8-6.4-22.8-19.2c0-10.3,5.5-17.3,16.4-21l15.5-2.7
			l11-0.9l10-1.8c12.2-1.2,20.8-5.9,26-14.1c5.2-8.2,12-29.1,20.5-62.5L2156.7,764.6z"/>
	</g>
	<g>
		<linearGradient id="SVGID_5_" gradientUnits="userSpaceOnUse" x1="596.3632" y1="1172.4427" x2="719.447" y2="1263.4261">
			<stop  offset="0" style="stop-color:#000000;stop-opacity:0"/>
			<stop  offset="0.1572" style="stop-color:#000000"/>
		</linearGradient>
		<polygon class="st7" points="548.9,1238.1 559.1,1252.9 654.3,1114.5 644.1,1099.7 		"/>
	</g>
	<g>
		<linearGradient id="SVGID_6_" gradientUnits="userSpaceOnUse" x1="374.2228" y1="1172.5107" x2="447.1338" y2="1220.4136">
			<stop  offset="0" style="stop-color:#000000;stop-opacity:0"/>
			<stop  offset="0.2537" style="stop-color:#000000"/>
		</linearGradient>
		<polygon class="st8" points="422.5,1099.7 327.3,1238.1 337.5,1252.9 432.7,1114.4 		"/>
		<linearGradient id="SVGID_7_" gradientUnits="userSpaceOnUse" x1="477.713" y1="1005.8436" x2="517.9293" y2="1034.3893">
			<stop  offset="0.2023" style="stop-color:#000000;stop-opacity:0"/>
			<stop  offset="0.6884" style="stop-color:#000000"/>
		</linearGradient>
		<polygon class="st9" points="448.3,1091.7 543.5,953.3 533.4,938.6 438.2,1077 		"/>
	</g>
</g>
</svg>
