<?xml version="1.0" encoding="UTF-8" standalone="no"?>
<!-- Created with Inkscape (http://www.inkscape.org/) -->

<svg
   width="155.89204mm"
   height="40.450306mm"
   viewBox="0 0 155.89204 40.450306"
   version="1.1"
   id="svg1"
   xml:space="preserve"
   inkscape:version="1.4.2 (f4327f4, 2025-05-13)"
   sodipodi:docname="Family Computer Disk System logo.svg"
   xmlns:inkscape="http://www.inkscape.org/namespaces/inkscape"
   xmlns:sodipodi="http://sodipodi.sourceforge.net/DTD/sodipodi-0.dtd"
   xmlns="http://www.w3.org/2000/svg"
   xmlns:svg="http://www.w3.org/2000/svg"><sodipodi:namedview
     id="namedview1"
     pagecolor="#ffffff"
     bordercolor="#000000"
     borderopacity="0.25"
     inkscape:showpageshadow="2"
     inkscape:pageopacity="0.0"
     inkscape:pagecheckerboard="0"
     inkscape:deskcolor="#d1d1d1"
     inkscape:document-units="mm"
     showguides="true"
     inkscape:zoom="3.2579886"
     inkscape:cx="303.715"
     inkscape:cy="67.372857"
     inkscape:window-width="3840"
     inkscape:window-height="1511"
     inkscape:window-x="-9"
     inkscape:window-y="-9"
     inkscape:window-maximized="1"
     inkscape:current-layer="layer1" /><defs
     id="defs1"><rect
       x="148.01981"
       y="608.5741"
       width="448.83423"
       height="36.028282"
       id="rect10" /></defs><g
     inkscape:label="Layer 1"
     inkscape:groupmode="layer"
     id="layer1"
     style="display:inline"
     transform="translate(-0.328303,-0.32053449)"><path
       sodipodi:nodetypes="ccccc"
       d="m -44.54936,213.44801 h 332.27423 l -3.65707,3.43007 H -44.54936 Z"
       style="fill:#e6361e;fill-opacity:1;stroke:none;stroke-width:0.264999;stroke-linecap:round;stroke-linejoin:miter;stroke-miterlimit:4;stroke-dasharray:none"
       id="rect2217"
       inkscape:label="rect2217" /><g
       id="g1"
       transform="translate(-14.780336,-108.49741)"><g
         id="g6"
         transform="matrix(0.23187277,0,0,0.23187277,25.551443,68.069665)"
         style="fill:#000000"><path
           d="m -44.549374,175.91894 v 6.29111 7.62174 6.29111 13.24723 h 6.532932 V 196.1229 h 10.948168 v -6.29111 h -10.948168 v -7.62174 h 10.948168 v -6.29111 h -10.948168 z"
           style="fill:#000000;fill-opacity:1;stroke:none;stroke-width:0.264999;stroke-linecap:round;stroke-linejoin:miter;stroke-miterlimit:4;stroke-dasharray:none"
           id="rect1840" /><path
           d="m -11.703825,175.91894 -22.985666,33.45119 h 7.31893 l 3.520705,-5.20226 h 11.29957 v 5.20226 h 6.1091873 v -33.45119 z m -0.846461,11.55383 v 10.70684 h -7.246577 z"
           style="fill:#000000;fill-opacity:1;stroke:none;stroke-width:0.264583px;stroke-linecap:butt;stroke-linejoin:miter;stroke-opacity:1"
           id="path1859" /><path
           style="fill:#000000;fill-opacity:1;stroke:none;stroke-width:0.264583px;stroke-linecap:butt;stroke-linejoin:miter;stroke-opacity:1"
           d="m 22.59405,175.91918 h 7.37976 V 209.37 h -6.5329 V 192.55386 H 22.83603 L 15.60773,209.37 H 12.67375 9.73977 L 2.51147,192.55386 H 1.90659 V 209.37 h -6.5329 v -33.45082 h 7.37976 l 9.9203,22.9861 z"
           id="path1894-2"
           sodipodi:nodetypes="ccccccccccccccccc" /><path
           sodipodi:nodetypes="ccccc"
           d="M 31.67142,175.91918 H 37.9049 V 209.37 h -6.23348 z"
           style="fill:#000000;fill-opacity:1;stroke:none;stroke-width:0.264999;stroke-linecap:round;stroke-linejoin:miter;stroke-miterlimit:4;stroke-dasharray:none"
           id="rect1840-6" /><path
           d="m 39.669783,175.91894 v 27.10844 6.34275 h 6.532933 8.542631 v -6.34275 h -8.542631 v -27.10844 z"
           style="fill:#000000;fill-opacity:1;stroke:none;stroke-width:0.264999;stroke-linecap:round;stroke-linejoin:miter;stroke-miterlimit:4;stroke-dasharray:none"
           id="rect1840-0" /><path
           sodipodi:nodetypes="ccccccccccc"
           id="path1942"
           d="m 58.13277,209.37013 v -12.70297 l -10.4783,-20.74822 h 6.87817 l 6.77485,13.30799 6.86558,-13.30799 h 6.87817 l -10.4783,20.74822 v 12.70297 h -3.17472 z"
           style="fill:#000000;fill-opacity:1;stroke:none;stroke-width:0.264583px;stroke-linecap:butt;stroke-linejoin:miter;stroke-opacity:1" /><path
           sodipodi:nodetypes="ccccccccccccccccc"
           id="path1894-2-6"
           d="m 172.89732,175.91918 h 7.37976 V 209.37 h -6.5329 V 192.55386 H 173.1393 L 165.911,209.37 h -2.93398 -2.93398 l -7.2283,-16.81614 h -0.60488 V 209.37 h -6.5329 v -33.45082 h 7.37976 l 9.9203,22.9861 z"
           style="fill:#000000;fill-opacity:1;stroke:none;stroke-width:0.264583px;stroke-linecap:butt;stroke-linejoin:miter;stroke-opacity:1" /><path
           d="m 127.18072,175.73551 a 16.818333,17.090538 0 0 0 -16.81809,17.09041 16.818333,17.090538 0 0 0 16.81809,17.09045 16.818333,17.090538 0 0 0 16.81861,-17.09045 16.818333,17.090538 0 0 0 -16.81861,-17.09041 z m -0.0419,6.05234 a 10.796515,11.06872 0 0 1 0.0119,0 10.796515,11.06872 0 0 1 10.79624,11.06858 10.796515,11.06872 0 0 1 -10.79624,11.06858 10.796515,11.06872 0 0 1 -10.79676,-11.06858 10.796515,11.06872 0 0 1 10.78487,-11.06858 z"
           style="fill:#000000;fill-opacity:1;stroke:none;stroke-width:0.260622;stroke-linecap:round;stroke-linejoin:miter;stroke-miterlimit:4;stroke-dasharray:none"
           id="path1980" /><path
           d="m 95.242101,175.73551 a 16.818562,17.030277 0 0 0 -16.818097,17.02996 16.818562,17.030277 0 0 0 16.818097,17.02998 16.818562,17.030277 0 0 0 14.994949,-9.31727 h -7.27863 a 10.796662,11.029692 0 0 1 -7.746291,3.34708 10.796662,11.029692 0 0 1 -10.796757,-11.02929 10.796662,11.029692 0 0 1 10.784869,-11.02982 10.796662,11.029692 0 0 1 0.01188,0 10.796662,11.029692 0 0 1 7.570079,3.16622 h 7.39387 a 16.818562,17.030277 0 0 0 -14.933977,-9.19686 z"
           style="fill:#000000;fill-opacity:1;stroke:none;stroke-width:0.260164;stroke-linecap:round;stroke-linejoin:miter;stroke-miterlimit:4;stroke-dasharray:none"
           id="path1980-2" /><path
           d="m 192.78292,175.91791 h -10.71304 l -0.0109,33.45119 h 6.52208 l 0.004,-11.73107 h 4.1982 a 10.860502,10.860502 0 0 0 9.40511,-5.43015 10.860502,10.860502 0 0 0 0,-10.86083 10.860502,10.860502 0 0 0 -9.40511,-5.43017 z m 0.22427,6.36344 c 1.56871,0 3.018,0.83722 3.80235,2.19573 0.78435,1.35855 0.78435,3.03241 0,4.39097 -0.78435,1.35853 -2.23365,2.19519 -3.80235,2.19519 h -4.4204 l 0.003,-8.78086 z"
           style="fill:#000000;fill-opacity:1;stroke:none;stroke-width:0.264999;stroke-linecap:round;stroke-linejoin:miter;stroke-miterlimit:4;stroke-dasharray:none"
           id="rect2037" /><path
           d="m 279.79311,175.91688 v 0 H 266.5133 l -0.0109,33.45119 h 6.35104 v -17.16328 l 3.26956,5.43221 7.06056,11.73107 h 6.98251 l -7.05745,-12.20184 -0.0382,-0.0408 c 2.54814,-0.80735 4.75235,-2.53627 6.1278,-4.91855 1.94016,-3.36034 1.94016,-7.50051 0,-10.86083 -1.94001,-3.36013 -5.52518,-5.43004 -9.40512,-5.43017 z m 0.19843,6.36447 c 1.56872,0 3.01801,0.83728 3.80236,2.19573 0.78435,1.35858 0.78435,3.03238 0,4.39097 -0.78435,1.35853 -2.23365,2.19519 -3.80236,2.19519 h -7.13238 l 0.003,-8.78086 z"
           style="fill:#000000;fill-opacity:1;stroke:none;stroke-width:0.264999;stroke-linecap:round;stroke-linejoin:miter;stroke-miterlimit:4;stroke-dasharray:none"
           id="rect2037-4" /><path
           sodipodi:nodetypes="ssccccssccccs"
           d="m 213.84782,202.55781 c 1.35421,0.78185 2.87144,0.78185 4.22565,0 1.3542,-0.78185 2.18843,-2.22677 2.18843,-3.79047 v -22.8484 h 6.47029 v 22.91661 c 0,3.84341 -2.09069,7.33068 -5.41918,9.25239 -3.32849,1.92171 -7.42936,1.92171 -10.75785,0 -3.32849,-1.92171 -5.38593,-5.40899 -5.38593,-9.2524 v -22.9166 h 6.49016 v 22.8484 c 0,1.5637 0.83423,3.00862 2.18843,3.79047 z"
           style="fill:#000000;fill-opacity:1;stroke:none;stroke-width:0.265;stroke-linecap:round;stroke-linejoin:miter;stroke-miterlimit:4;stroke-dasharray:none"
           id="path2125-4" /><path
           d="m 228.4257,175.91894 v 6.53296 h 5.41414 v 26.91823 h 6.53293 V 182.4519 h 5.48908 v -6.53296 h -5.48908 -6.53293 z"
           style="fill:#000000;fill-opacity:1;stroke:none;stroke-width:0.264999;stroke-linecap:round;stroke-linejoin:miter;stroke-miterlimit:4;stroke-dasharray:none"
           id="rect2163" /><path
           d="m 247.4509,175.91791 v 6.29161 h 0.002 v 7.6228 h -0.002 v 6.29161 h 0.002 v 6.95409 6.29211 h 6.53293 10.60865 v -6.29211 h -10.60865 v -6.95409 H 264.593 v -6.29161 h -10.60762 v -7.6228 H 264.593 v -6.29161 z"
           style="fill:#000000;fill-opacity:1;stroke:none;stroke-width:0.264999;stroke-linecap:round;stroke-linejoin:miter;stroke-miterlimit:4;stroke-dasharray:none"
           id="rect1840-7" /></g><path
         style="font-size:6.17985px;font-family:SystemN;-inkscape-font-specification:'SystemN, Normal';fill:#1a1a1a;stroke-width:0.514987"
         d="m 168.99223,144.24953 h -1.33485 l 2.00845,3.18262 v 0.32135 h -5.154 v -0.32135 l 2.53992,-4.06634 h -1.33484 l -2.53992,4.09106 v 1.73036 h 7.82369 v -1.73036 z"
         id="path56" /><path
         id="path55"
         style="font-size:6.17985px;font-family:SystemN;-inkscape-font-specification:'SystemN, Normal';fill:#1a1a1a;stroke-width:0.514987"
         d="m 155.5935,143.36593 v 1.4149 h 7.00785 v -1.4149 z m -0.29042,1.92184 v 1.4149 h 5.34541 c -0.0247,0.70038 -0.40563,1.05059 -1.14308,1.05059 h -4.20233 v 1.43402 h 4.55425 c 0.60563,0 1.0755,-0.20606 1.40921,-0.61805 0.30899,-0.39139 0.46354,-0.91643 0.46354,-1.57562 v -0.29094 h 1.16169 v -1.4149 z" /><path
         style="font-size:6.17985px;font-family:SystemN;-inkscape-font-specification:'SystemN, Normal';fill:#1a1a1a;stroke-width:0.514987"
         d="m 153.48596,146.56697 c 0.21423,-0.56855 0.32547,-1.14739 0.33371,-1.73654 v 0 -1.46462 h -6.92761 v 1.41518 H 152.8 v 0.14214 c 0,0.75394 -0.26779,1.40488 -0.80338,1.95283 -0.58091,0.58503 -1.32455,0.87754 -2.23093,0.87754 h -2.87363 v 1.43373 h 3.17026 c 1.14533,0 2.08055,-0.49027 2.80566,-1.47081 l 0.79102,1.47081 h 1.28541 z"
         id="path53" /><path
         id="path52"
         style="font-size:6.17985px;font-family:SystemN;-inkscape-font-specification:'SystemN, Normal';fill:#1a1a1a;stroke-width:0.514987"
         d="m 138.84476,143.36593 v 1.4149 h 4.20233 v -1.4149 z m 6.56911,0 v 2.92282 c 0,0.46555 -0.18317,0.82615 -0.54984,1.08158 -0.36667,0.25543 -0.90472,0.38293 -1.61334,0.38293 h -4.40593 v 1.43402 h 4.68395 c 0.91462,0 1.62958,-0.26382 2.14457,-0.79117 0.50675,-0.51499 0.76016,-1.21122 0.76016,-2.08876 v -2.94142 z m -6.56911,1.98954 v 1.41542 h 4.20233 v -1.41542 z" /><path
         style="font-size:6.17985px;font-family:SystemN;-inkscape-font-specification:'SystemN, Normal';fill:#1a1a1a;stroke-width:0.514987"
         d="m 128.779,143.37181 v 0.40169 c 0,0.35019 -0.103,0.65301 -0.30899,0.90844 -0.20187,0.25131 -0.44495,0.39963 -0.72922,0.44495 v 1.65002 c 0.48203,-0.0453 0.89814,-0.24515 1.24833,-0.59945 0.35019,-0.35431 0.57679,-0.81986 0.67978,-1.39665 h 4.64107 v 1.50789 c 0,0.46555 -0.18334,0.82604 -0.55001,1.08147 -0.36667,0.25543 -0.90431,0.38315 -1.61294,0.38315 h -3.90566 v 1.43373 h 4.18375 c 0.91462,0 1.62942,-0.26367 2.14441,-0.79102 0.50675,-0.51499 0.76012,-1.21125 0.76012,-2.08879 v -2.93543 z"
         id="path49" /><path
         style="font-size:6.17985px;font-family:SystemN;-inkscape-font-specification:'SystemN, Normal';fill:#1a1a1a;stroke-width:0.514987"
         d="m 126.49501,146.56679 c 0.21423,-0.56855 0.32547,-1.14739 0.33371,-1.73654 v 0 -1.46462 h -6.92761 v 1.41518 h 5.90794 v 0.14214 c 0,0.75394 -0.26779,1.40488 -0.80338,1.95283 -0.58091,0.58503 -1.32455,0.87754 -2.23093,0.87754 h -2.87363 v 1.43373 h 3.17026 c 1.14533,0 2.08055,-0.49027 2.80566,-1.47081 l 0.79102,1.47081 h 1.2854 z"
         id="path48" /><path
         style="font-size:6.17985px;font-family:SystemN;-inkscape-font-specification:'SystemN, Normal';fill:#1a1a1a;stroke-width:0.514987"
         d="m 118.6703,144.86201 c 0,0.50675 -0.27191,0.76013 -0.81574,0.76013 h -4.37533 v 1.24215 h 2.47812 v 2.40396 h 1.04439 v -2.40396 h 0.83428 c 0.55207,0 0.98672,-0.18334 1.30395,-0.55001 0.31723,-0.36667 0.47585,-0.85076 0.47585,-1.45227 z"
         id="path47" /><g
         id="g56"
         transform="translate(0.75249589,0.06090798)"><path
           style="font-size:6.17985px;font-family:SystemN;-inkscape-font-specification:'SystemN, Normal';fill:#1a1a1a;stroke-width:0.514987"
           d="m 111.04994,143.36563 v 1.41518 h 0.77866 v -1.41518 z"
           id="path46" /><path
           style="font-size:6.17985px;font-family:SystemN;-inkscape-font-specification:'SystemN, Normal';fill:#1a1a1a;stroke-width:0.514987"
           d="m 110.79657,143.36563 h -0.78484 v 1.41518 h 0.78484 z"
           id="path45" /><path
           style="font-size:6.17985px;font-family:SystemN;-inkscape-font-specification:'SystemN, Normal';fill:#1a1a1a;stroke-width:0.514987"
           d="m 109.76453,143.36563 h -5.23433 v 1.41518 h 5.23433 z"
           id="path44" /><path
           style="font-size:6.17985px;font-family:SystemN;-inkscape-font-specification:'SystemN, Normal';fill:#1a1a1a;stroke-width:0.514987"
           d="m 104.23975,146.70275 h 5.34557 c -0.0247,0.70038 -0.40583,1.05057 -1.14328,1.05057 h -4.20229 v 1.43373 h 4.55455 c 0.60562,0 1.07529,-0.206 1.409,-0.61799 0.30899,-0.39139 0.46349,-0.91667 0.46349,-1.57586 v -0.29045 h 1.16181 v -1.41519 h -7.58885 z"
           id="path43" /></g><path
         style="font-size:6.17985px;font-family:SystemN;-inkscape-font-specification:'SystemN, Normal';fill:#1a1a1a;stroke-width:0.514987"
         d="m 94.500312,143.36563 v 0.40787 c 0,0.35019 -0.102997,0.65301 -0.308992,0.90844 -0.201875,0.25131 -0.44495,0.39963 -0.729223,0.44495 v 1.65002 c 0.482029,-0.0453 0.898139,-0.24515 1.24833,-0.59945 0.350191,-0.35431 0.576786,-0.81986 0.679784,-1.39665 h 4.641069 v 0.74159 h -4.400055 v 1.32248 h 4.282636 c -0.263674,0.60563 -0.945518,0.90844 -2.045531,0.90844 h -3.905665 v 1.43373 h 4.183759 c 0.914617,0 1.629419,-0.26367 2.144406,-0.79102 0.50675,-0.51499 0.76012,-1.21125 0.76012,-2.08879 v -2.94161 z"
         id="path42" /><path
         style="font-size:6.17985px;font-family:SystemN;-inkscape-font-specification:'SystemN, Normal';fill:#1a1a1a;stroke-width:0.500592"
         d="m 92.797332,145.53476 h -6.960328 v 1.41518 h 6.960328 z"
         id="path41" /><path
         style="font-size:6.17985px;font-family:SystemN;-inkscape-font-specification:'SystemN, Normal';fill:#1a1a1a;stroke-width:0.514987"
         d="m 84.977931,147.9449 v -3.16409 h -4.412413 v 1.2298 h 3.503975 v 1.93429 H 80.07731 v 1.24215 h 5.877038 v -1.24215 z"
         id="path40" /><path
         id="path39"
         style="font-size:6.17985px;font-family:SystemN;-inkscape-font-specification:'SystemN, Normal';fill:#1a1a1a;stroke-width:0.514987"
         d="m 72.074096,143.36541 v 2.94194 c 0,0.87754 0.253412,1.57377 0.76016,2.08876 0.514987,0.52735 1.229954,0.79117 2.144572,0.79117 h 4.684469 v -1.43402 h -4.40645 c -0.708623,0 -1.24615,-0.1275 -1.612821,-0.38293 -0.366671,-0.25543 -0.549837,-0.61603 -0.549837,-1.08158 v -0.0925 h 6.569108 v -0.96428 c -0.267793,0.37491 -0.63048,0.56224 -1.087789,0.56224 -0.308993,0 -0.584783,-0.0947 -0.827857,-0.28422 -0.238955,-0.19364 -0.39558,-0.43664 -0.469738,-0.72915 h -4.183724 v -1.41542 z m 6.501412,0 c -0.300753,0 -0.558328,0.1072 -0.772563,0.32143 -0.210115,0.21011 -0.315226,0.46561 -0.315226,0.76636 0,0.30075 0.105111,0.55833 0.315226,0.77256 0.214235,0.21012 0.47181,0.31523 0.772563,0.31523 0.300753,0 0.556246,-0.10511 0.766361,-0.31523 0.214235,-0.21423 0.321428,-0.47181 0.321428,-0.77256 0,-0.30075 -0.107193,-0.55625 -0.321428,-0.76636 -0.210115,-0.21423 -0.465608,-0.32143 -0.766361,-0.32143 z m 0,0.53175 c 0.152436,0 0.282006,0.0557 0.389123,0.16691 0.111237,0.10712 0.166915,0.2367 0.166915,0.38913 0,0.15244 -0.05568,0.28461 -0.166915,0.39584 -0.107117,0.10712 -0.236687,0.1602 -0.389123,0.1602 -0.152437,0 -0.284088,-0.0531 -0.395325,-0.1602 -0.107117,-0.11123 -0.160714,-0.2434 -0.160714,-0.39584 0,-0.15243 0.0536,-0.28201 0.160714,-0.38913 0.111237,-0.11123 0.242888,-0.16691 0.395325,-0.16691 z" /><path
         id="path37"
         style="font-size:6.17985px;font-family:SystemN;-inkscape-font-specification:'SystemN, Normal';fill:#1a1a1a;stroke-width:0.514987"
         d="m 64.181096,143.36541 v 1.41542 h 4.394047 v -1.41542 z m 6.569108,0 v 2.92334 c 0,0.46555 -0.183166,0.82615 -0.549837,1.08158 -0.366671,0.25543 -0.904198,0.38293 -1.612821,0.38293 h -4.40645 v 1.43402 h 4.684469 c 0.914617,0 1.629584,-0.26382 2.144572,-0.79117 0.506747,-0.51499 0.76016,-1.21122 0.76016,-2.08876 v -2.94194 z" /><path
         style="font-size:6.17985px;font-family:SystemN;-inkscape-font-specification:'SystemN, Normal';fill:#1a1a1a;stroke-width:0.514987"
         d="m 55.962051,143.36563 v 1.40901 h 6.538281 v 2.97868 h -6.538281 v 1.43373 h 7.588856 v -5.82142 z"
         id="path35" /><path
         style="font-size:6.17985px;font-family:SystemN;-inkscape-font-specification:'SystemN, Normal';fill:#1a1a1a;stroke-width:0.514987"
         d="m 53.750386,145.53476 h -7.366381 v 1.41518 h 7.366381 z"
         id="path34" /><path
         id="path33"
         style="font-size:6.17985px;font-family:SystemN;-inkscape-font-specification:'SystemN, Normal';fill:#1a1a1a;stroke-width:0.514987"
         d="m 38.170797,143.36541 v 3.59048 h 1.192692 v -3.59048 z m 6.569625,0 v 2.92334 c 0,0.46555 -0.183683,0.82615 -0.550354,1.08158 -0.366671,0.25543 -0.904199,0.38293 -1.612822,0.38293 h -3.126941 v 1.43402 h 3.40496 c 0.914618,0 1.629585,-0.26382 2.144572,-0.79117 0.506747,-0.51499 0.760161,-1.21122 0.760161,-2.08876 v -2.94194 z" /><path
         id="path31"
         style="font-size:6.17985px;font-family:SystemN;-inkscape-font-specification:'SystemN, Normal';fill:#1a1a1a;stroke-width:0.514987"
         d="m 29.95166,143.16801 v 1.28519 l 7.589201,0.89607 v -1.2852 z m 0,1.91564 v 1.29139 l 7.589201,0.89607 v -1.29139 z m 0,1.91565 v 1.29191 l 7.589201,0.89607 v -1.29191 z" /><path
         style="font-size:6.17985px;font-family:SystemN;-inkscape-font-specification:'SystemN, Normal';fill:#1a1a1a;stroke-width:0.514987"
         d="m 23.438225,144.78085 v 1.2298 h 5.116916 c 0,0.14831 -0.06386,0.28015 -0.191576,0.39551 -0.127717,0.11535 -0.286333,0.17303 -0.475848,0.17303 h -1.928113 v 0.52529 c 0,0.56031 -0.288393,0.84046 -0.865179,0.84046 h -1.6562 v 1.24215 h 2.04553 c 0.436709,0 0.778661,-0.14214 1.025855,-0.42641 0.230715,-0.27191 0.356372,-0.63858 0.376971,-1.10001 h 0.809561 c 0.482028,0 0.877538,-0.17098 1.186531,-0.51293 0.296633,-0.32547 0.444949,-0.72304 0.444949,-1.19271 v -1.17418 z"
         id="path28" /><path
         style="font-size:6.17985px;font-family:SystemN;-inkscape-font-specification:'SystemN, Normal';fill:#1a1a1a;stroke-width:0.514987"
         d="m 15.225205,143.36567 v 1.41518 h 6.56918 v 1.50789 c 0,0.46555 -0.183335,0.82604 -0.550006,1.08147 -0.366671,0.25543 -0.904318,0.38315 -1.612941,0.38315 h -3.905666 v 1.43373 h 4.183759 c 0.914618,0 1.629421,-0.26367 2.144408,-0.79102 0.506748,-0.51499 0.760122,-1.21125 0.760122,-2.08879 v -2.94161 z"
         id="text6" /><g
         id="g15"
         style="opacity:1;fill:#ff0000"><path
           style="font-size:36.0039px;font-family:Diskun;-inkscape-font-specification:Diskun;opacity:1;fill:#000000;stroke-width:3.00032"
           d="m 170.69641,141.96847 h -6.37269 v -16.95784 q 0.036,-0.072 0,-0.25203 0,-0.21602 -0.10801,-0.36004 -0.14402,-0.14401 -0.50406,-0.14401 -0.28803,0 -0.39604,0.072 -0.10801,0.036 -0.14401,0.10801 -0.18002,0.25203 -0.18002,0.43205 -0.036,0.14401 0,0.21602 v 0.072 16.81382 h -6.33669 v -16.88583 q 0,-0.072 -0.036,-0.32404 0,-0.25202 -0.14402,-0.43204 -0.072,-0.036 -0.18002,-0.10802 -0.072,-0.072 -0.36004,-0.072 -0.25203,0 -0.36004,0.072 -0.072,0.072 -0.10801,0.10802 -0.18002,0.18002 -0.25203,0.46805 -0.036,0.25202 0,0.36004 v 0.036 16.77782 h -6.01265 v -23.9786 h 8.13688 q 0,0 0.25203,0.036 0.28803,0 0.64807,0.10802 0.39604,0.10801 0.82809,0.32403 0.43205,0.21602 0.82809,0.61207 0.32404,-0.39605 0.97211,-0.72008 0.64807,-0.36004 1.62017,-0.36004 h 4.6445 q 0.46805,0 1.08012,0.18002 0.61207,0.14402 1.15213,0.57606 0.57606,0.39605 0.9361,1.08012 0.39604,0.68407 0.39604,1.72819 z"
           id="path15" /><path
           style="font-size:36.0039px;font-family:Diskun;-inkscape-font-specification:Diskun;opacity:1;fill:#ffc600;fill-opacity:1;stroke-width:3.00032"
           d="m 165.36783,140.88835 h 4.24846 v -19.33409 q 0,-0.9001 -0.36004,-1.36815 -0.36003,-0.50406 -0.82809,-0.75608 -0.43204,-0.25203 -0.82809,-0.28803 -0.39604,-0.072 -0.46805,-0.072 h -4.6445 q -0.57606,0 -1.00811,0.18002 -0.39604,0.18002 -0.68407,0.39604 -0.25203,0.21602 -0.39604,0.43205 -0.10802,0.18002 -0.10802,0.18002 l -0.46805,0.86409 -0.46805,-0.9001 q -0.21602,-0.43204 -0.54006,-0.64807 -0.32403,-0.25203 -0.64807,-0.36004 -0.32403,-0.10801 -0.57606,-0.10801 -0.25203,-0.036 -0.25203,-0.036 h -7.05676 v 21.81836 h 3.85242 v -15.6977 q -0.036,-0.10801 0.036,-0.61207 0.072,-0.54005 0.50406,-0.9721 0.14401,-0.18002 0.43204,-0.32404 0.32404,-0.18002 0.82809,-0.18002 0.54006,0 0.82809,0.18002 0.32404,0.18002 0.50406,0.36004 0.39604,0.39605 0.43204,0.9001 0.036,0.50405 0.036,0.61207 v 15.7337 h 4.17645 v -15.6977 q -0.036,-0.14402 0,-0.57606 0.036,-0.46805 0.43205,-0.8641 0.18002,-0.18002 0.50405,-0.36003 0.32404,-0.18002 0.86409,-0.18002 0.50406,0 0.79209,0.18002 0.32403,0.14401 0.50405,0.32403 0.32404,0.39604 0.36004,0.82809 0.036,0.39604 0,0.54006 z"
           id="path27" /><path
           style="font-size:36.0039px;font-family:Diskun;-inkscape-font-specification:Diskun;opacity:1;fill:#000000;stroke-width:3.00032"
           d="m 136.78076,141.96847 v -23.9786 h 11.0892 v 6.15667 h -4.5725 v 3.02432 h 4.50049 v 6.08466 h -4.50049 v 2.95232 h 4.5725 v 5.76063 0 z"
           id="path26" /><path
           style="font-size:36.0039px;font-family:Diskun;-inkscape-font-specification:Diskun;opacity:1;fill:#ffc600;fill-opacity:1;stroke-width:3.00032"
           d="m 146.78984,140.88835 v -3.60039 h -4.57249 v -5.11255 h 4.50048 v -3.92443 h -4.50048 v -5.18456 h 4.57249 v -3.99643 h -8.92897 v 21.81836 0 z"
           id="path14" /><path
           style="font-size:36.0039px;font-family:Diskun;-inkscape-font-specification:Diskun;opacity:1;fill:#000000;stroke-width:3.00032"
           d="m 125.87157,141.96847 v -17.71392 h -2.84431 v -6.26468 h 12.56537 v 6.30068 h -2.98833 v 17.67792 0 z"
           id="path25" /><path
           style="font-size:36.0039px;font-family:Diskun;-inkscape-font-specification:Diskun;opacity:1;fill:#ffc600;fill-opacity:1;stroke-width:3.00032"
           d="m 131.52418,140.88835 v -17.67791 h 2.98833 v -4.14045 h -10.40513 v 4.10444 h 2.84431 v 17.71392 0 z"
           id="path13" /><path
           style="font-size:36.0039px;font-family:Diskun;-inkscape-font-specification:Diskun;opacity:1;fill:#000000;stroke-width:3.00032"
           d="m 111.72204,141.96847 q -1.8362,0 -2.80831,-1.11612 -0.43205,-0.46805 -0.64807,-0.97211 -0.21602,-0.54006 -0.32403,-1.00811 -0.10802,-0.50405 -0.10802,-0.82809 0,-0.36004 0,-0.43204 v -7.20078 l 6.33669,3.88842 v 1.33214 q 0,0.28803 0.14402,0.54006 0.14401,0.21602 0.54005,0.21602 0.64807,0 0.64807,-0.82809 v -0.072 -1.44016 l -5.14855,-3.24035 q -0.9361,-0.54006 -1.44016,-1.15213 -0.50405,-0.64807 -0.75608,-1.15212 -0.25203,-0.54006 -0.28803,-0.9001 -0.036,-0.36004 -0.036,-0.39604 v -5.43659 q 0,-1.69218 1.00811,-2.70029 0.39605,-0.39605 0.82809,-0.61207 0.46805,-0.21602 0.82809,-0.32403 0.39605,-0.10802 0.64807,-0.10802 0.28803,-0.036 0.28803,-0.036 h 6.15667 q 1.26014,0 2.08823,0.43205 0.82809,0.39604 1.29614,1.00811 0.50405,0.61206 0.68407,1.29614 0.21602,0.68407 0.21602,1.18813 v 8.02886 l -6.37269,-4.14044 v -1.15213 q 0,-0.28803 -0.18001,-0.46805 -0.14402,-0.21602 -0.50406,-0.21602 -0.39604,0 -0.54006,0.25202 -0.10801,0.25203 -0.10801,0.43205 v 1.54817 l 5.47259,3.52838 q 0.82809,0.61207 1.26014,1.22413 0.46805,0.57607 0.68407,1.08012 0.21603,0.46805 0.25203,0.79209 0.036,0.32403 0.036,0.36004 v 4.89653 q 0,1.44015 -0.50405,2.23224 -0.50405,0.79208 -1.11612,1.15212 -0.61207,0.36004 -1.15213,0.43205 -0.50405,0.072 -0.50405,0.072 z"
           id="path24" /><path
           style="font-size:36.0039px;font-family:Diskun;-inkscape-font-specification:Diskun;opacity:1;fill:#ffc600;fill-opacity:1;stroke-width:3.00032"
           d="m 108.91373,137.648 q 0,0 0,0.28803 0,0.25203 0.072,0.64807 0.072,0.36004 0.21602,0.79209 0.18002,0.39604 0.50406,0.75608 0.68407,0.75608 2.01622,0.75608 h 0.036 6.84074 q 0.072,0 0.43205,-0.036 0.36004,-0.072 0.75608,-0.32404 0.39604,-0.28803 0.68407,-0.86409 0.32404,-0.57606 0.32404,-1.58417 v -4.89653 q 0,0 -0.036,-0.21603 -0.036,-0.25203 -0.21602,-0.61206 -0.14402,-0.36004 -0.50405,-0.79209 -0.32404,-0.46805 -0.97211,-0.9361 l -5.97665,-3.81641 v -2.16024 q 0,-0.18002 0.072,-0.50405 0.072,-0.32404 0.36004,-0.64807 0.18002,-0.18002 0.46805,-0.39605 0.32404,-0.21602 0.9001,-0.21602 0.50405,0 0.75608,0.18002 0.28803,0.14402 0.43205,0.32404 0.36004,0.39604 0.39604,0.79208 0.072,0.39604 0.072,0.50406 v 0.54005 l 4.24846,2.7363 v -6.04865 q 0,-0.10802 -0.072,-0.54006 -0.072,-0.46805 -0.39604,-0.97211 -0.28803,-0.54006 -0.9361,-0.9361 -0.64807,-0.39604 -1.8002,-0.39604 h -6.15667 q -0.10801,0 -0.50405,0.072 -0.39604,0.036 -0.86409,0.32403 -0.43205,0.25203 -0.79209,0.79209 -0.36004,0.54005 -0.36004,1.51216 v 5.43659 q 0,0 0.036,0.28803 0.072,0.25203 0.25203,0.64807 0.18002,0.39604 0.57606,0.86409 0.43205,0.46805 1.15213,0.9001 l 5.61661,3.52838 v 2.01622 q 0,0.18002 -0.036,0.64807 -0.036,0.43205 -0.39604,0.8641 -0.18002,0.18001 -0.46805,0.36003 -0.25203,0.14402 -0.75608,0.14402 -0.50406,0 -0.82809,-0.14402 -0.32404,-0.18002 -0.50406,-0.36003 -0.39604,-0.39605 -0.43204,-0.82809 -0.036,-0.46806 -0.036,-0.54006 v -0.68408 l -4.17645,-2.55627 z"
           id="path12" /><path
           style="font-size:36.0039px;font-family:Diskun;-inkscape-font-specification:Diskun;opacity:1;fill:#000000;stroke-width:3.00032"
           d="m 93.108035,141.96847 v -5.72462 h 6.120646 0.036 q 0.396037,0 0.432047,-0.10801 0.072,-0.14402 0.072,-0.28804 v -0.68407 h -4.068422 -0.108012 q -0.252027,0 -0.82809,-0.072 -0.576062,-0.10801 -1.188128,-0.50405 -0.540059,-0.39605 -1.080117,-1.18813 -0.504055,-0.82809 -0.504055,-2.37626 v -13.03341 h 6.5167 v 10.83717 0.072 q 0,0.14402 0.072,0.18002 0.14402,0.14402 0.540057,0.14402 0.432047,0 0.612067,-0.18002 0.072,-0.072 0.072,-0.14402 0,-0.10801 0,-0.14401 v -0.072 -10.69316 h 6.552702 v 20.23419 q 0,0.036 -0.036,0.32404 0,0.28803 -0.10801,0.72007 -0.10801,0.43205 -0.32403,0.93611 -0.21603,0.46805 -0.61207,0.86409 -0.86409,0.9001 -2.30425,0.9001 z"
           id="path23" /><path
           style="font-size:36.0039px;font-family:Diskun;-inkscape-font-specification:Diskun;opacity:1;fill:#ffc600;fill-opacity:1;stroke-width:3.00032"
           d="m 102.97308,140.88835 q 0.97211,0 1.51216,-0.57606 0.28804,-0.28803 0.43205,-0.64807 0.18002,-0.36004 0.25203,-0.64807 0.072,-0.32404 0.072,-0.54006 0.036,-0.25203 0.036,-0.25203 v -19.15407 h -4.39248 v 9.61304 q 0,0.10801 -0.036,0.43205 -0.036,0.32403 -0.32403,0.64807 -0.43205,0.54005 -1.404149,0.54005 -0.936094,0 -1.368141,-0.54005 -0.28803,-0.28804 -0.32403,-0.61207 -0.036,-0.32404 0,-0.43205 v -9.64904 h -4.356469 v 11.95329 q 0,1.8722 1.116121,2.66429 0.432047,0.28803 0.82809,0.36004 0.432046,0.036 0.576062,0.036 h 0.07201 5.184536 v 1.76419 q 0,0.68408 -0.43205,1.08012 -0.432032,0.39604 -1.152109,0.39604 h -0.10801 -4.968527 v 3.56439 z"
           id="path11" /><path
           style="font-size:36.0039px;font-family:Diskun;-inkscape-font-specification:Diskun;opacity:1;fill:#000000;stroke-width:3.00032"
           d="m 80.506657,141.96847 q -1.836198,0 -2.808304,-1.11612 -0.432046,-0.46805 -0.64807,-0.97211 -0.216023,-0.54006 -0.324035,-1.00811 -0.108012,-0.50405 -0.108012,-0.82809 0,-0.36004 0,-0.43204 v -7.20078 l 6.336687,3.88842 v 1.33214 q 0,0.28803 0.144015,0.54006 0.144016,0.21602 0.540059,0.21602 0.64807,0 0.64807,-0.82809 v -0.072 -1.44016 l -5.148558,-3.24035 q -0.936101,-0.54006 -1.440156,-1.15213 -0.504054,-0.64807 -0.756081,-1.15212 -0.252028,-0.54006 -0.288032,-0.9001 -0.036,-0.36004 -0.036,-0.39604 v -5.43659 q 0,-1.69218 1.00811,-2.70029 0.396042,-0.39605 0.828089,-0.61207 0.468051,-0.21602 0.82809,-0.32403 0.396043,-0.10802 0.64807,-0.10802 0.288031,-0.036 0.288031,-0.036 h 6.156667 q 1.260136,0 2.088226,0.43205 0.82809,0.39604 1.29614,1.00811 0.504055,0.61206 0.684075,1.29614 0.216023,0.68407 0.216023,1.18813 v 8.02886 l -6.37269,-4.14044 v -1.15213 q 0,-0.28803 -0.18002,-0.46805 -0.144015,-0.21602 -0.504054,-0.21602 -0.396043,0 -0.540059,0.25202 -0.108011,0.25203 -0.108011,0.43205 v 1.54817 l 5.472592,3.52838 q 0.82809,0.61207 1.260137,1.22413 0.46805,0.57607 0.684074,1.08012 0.216023,0.46805 0.252027,0.79209 0.036,0.32403 0.036,0.36004 v 4.89653 q 0,1.44015 -0.504055,2.23224 -0.504054,0.79208 -1.116121,1.15212 -0.612066,0.36004 -1.152124,0.43205 -0.504055,0.072 -0.504055,0.072 z"
           id="path22" /><path
           style="font-size:36.0039px;font-family:Diskun;-inkscape-font-specification:Diskun;opacity:1;fill:#ffc600;fill-opacity:1;stroke-width:3.00032"
           d="m 77.698353,137.648 q 0,0 0,0.28803 0,0.25203 0.07201,0.64807 0.07201,0.36004 0.216024,0.79209 0.180019,0.39604 0.504054,0.75608 0.684074,0.75608 2.016218,0.75608 h 0.036 6.840741 q 0.07201,0 0.432047,-0.036 0.360039,-0.072 0.756082,-0.32404 0.396043,-0.28803 0.684074,-0.86409 0.324035,-0.57606 0.324035,-1.58417 v -4.89653 q 0,0 -0.036,-0.21603 -0.036,-0.25203 -0.216023,-0.61206 -0.144016,-0.36004 -0.504055,-0.79209 -0.324035,-0.46805 -0.972105,-0.9361 l -5.976647,-3.81641 v -2.16024 q 0,-0.18002 0.07201,-0.50405 0.07201,-0.32404 0.360039,-0.64807 0.18002,-0.18002 0.468051,-0.39605 0.324035,-0.21602 0.900098,-0.21602 0.504054,0 0.756081,0.18002 0.288032,0.14402 0.432047,0.32404 0.360039,0.39604 0.396043,0.79208 0.07201,0.39604 0.07201,0.50406 v 0.54005 l 4.24846,2.7363 v -6.04865 q 0,-0.10802 -0.07201,-0.54006 -0.07201,-0.46805 -0.396043,-0.97211 -0.288031,-0.54006 -0.936101,-0.9361 -0.64807,-0.39604 -1.800195,-0.39604 h -6.156667 q -0.108011,0 -0.504054,0.072 -0.396043,0.036 -0.864094,0.32403 -0.432047,0.25203 -0.792086,0.79209 -0.360039,0.54005 -0.360039,1.51216 v 5.43659 q 0,0 0.036,0.28803 0.07201,0.25203 0.252028,0.64807 0.180019,0.39604 0.576062,0.86409 0.432047,0.46805 1.152125,0.9001 l 5.616608,3.52838 v 2.01622 q 0,0.18002 -0.036,0.64807 -0.036,0.43205 -0.396043,0.8641 -0.180019,0.18001 -0.468051,0.36003 -0.252027,0.14402 -0.756081,0.14402 -0.504055,0 -0.82809,-0.14402 -0.324035,-0.18002 -0.504055,-0.36003 -0.396043,-0.39605 -0.432046,-0.82809 -0.036,-0.46806 -0.036,-0.54006 v -0.68408 l -4.176453,-2.55627 z"
           id="path10" /><path
           style="font-size:36.0039px;font-family:Diskun;-inkscape-font-specification:Diskun;opacity:1;fill:#000000;stroke-width:3.00032"
           d="m 61.445845,141.96847 -0.07201,-6.80474 -0.792086,-0.75608 v 7.56082 h -6.408694 v -23.9786 h 6.408694 v 7.59682 l 1.044113,-1.04411 v -6.55271 h 6.228675 v 9.28901 l -2.628285,2.59228 2.628285,2.59228 v 9.50503 0 z"
           id="path21" /><path
           style="font-size:36.0039px;font-family:Diskun;-inkscape-font-specification:Diskun;opacity:1;fill:#ffc600;fill-opacity:1;stroke-width:3.00032"
           d="m 66.774422,140.88835 v -7.99287 l -3.060332,-3.02432 3.060332,-3.06033 v -7.74084 h -4.104445 v 5.90464 l -3.168343,3.31236 v -9.217 h -4.24846 v 21.81836 h 4.24846 v -8.96497 l 2.916316,2.7723 0.07201,6.19267 v 0 z"
           id="path9" /><path
           style="font-size:36.0039px;font-family:Diskun;-inkscape-font-specification:Diskun;opacity:1;fill:#000000;stroke-width:3.00032"
           d="m 42.615794,141.96847 q -1.836198,0 -2.808304,-1.11612 -0.432046,-0.46805 -0.64807,-0.97211 -0.216023,-0.54006 -0.324035,-1.00811 -0.108012,-0.50405 -0.108012,-0.82809 0,-0.36004 0,-0.43204 v -7.20078 l 6.336687,3.88842 v 1.33214 q 0,0.28803 0.144015,0.54006 0.144016,0.21602 0.540059,0.21602 0.64807,0 0.64807,-0.82809 v -0.072 -1.44016 l -5.148558,-3.24035 q -0.936101,-0.54006 -1.440156,-1.15213 -0.504054,-0.64807 -0.756081,-1.15212 -0.252028,-0.54006 -0.288032,-0.9001 -0.036,-0.36004 -0.036,-0.39604 v -5.43659 q 0,-1.69218 1.00811,-2.70029 0.396042,-0.39605 0.828089,-0.61207 0.468051,-0.21602 0.82809,-0.32403 0.396043,-0.10802 0.64807,-0.10802 0.288031,-0.036 0.288031,-0.036 h 6.156667 q 1.260136,0 2.088226,0.43205 0.82809,0.39604 1.29614,1.00811 0.504055,0.61206 0.684074,1.29614 0.216024,0.68407 0.216024,1.18813 v 8.02886 l -6.37269,-4.14044 v -1.15213 q 0,-0.28803 -0.18002,-0.46805 -0.144015,-0.21602 -0.504054,-0.21602 -0.396043,0 -0.540059,0.25202 -0.108011,0.25203 -0.108011,0.43205 v 1.54817 l 5.472592,3.52838 q 0.82809,0.61207 1.260137,1.22413 0.46805,0.57607 0.684074,1.08012 0.216023,0.46805 0.252027,0.79209 0.036,0.32403 0.036,0.36004 v 4.89653 q 0,1.44015 -0.504055,2.23224 -0.504054,0.79208 -1.116121,1.15212 -0.612066,0.36004 -1.152124,0.43205 -0.504055,0.072 -0.504055,0.072 z"
           id="path20" /><path
           style="font-size:36.0039px;font-family:Diskun;-inkscape-font-specification:Diskun;opacity:1;fill:#ffc600;fill-opacity:1;stroke-width:3.00032"
           d="m 39.80749,137.648 q 0,0 0,0.28803 0,0.25203 0.07201,0.64807 0.07201,0.36004 0.216024,0.79209 0.180019,0.39604 0.504054,0.75608 0.684074,0.75608 2.016218,0.75608 h 0.036 6.840741 q 0.07201,0 0.432047,-0.036 0.360039,-0.072 0.756082,-0.32404 0.396043,-0.28803 0.684074,-0.86409 0.324035,-0.57606 0.324035,-1.58417 v -4.89653 q 0,0 -0.036,-0.21603 -0.036,-0.25203 -0.216023,-0.61206 -0.144016,-0.36004 -0.504055,-0.79209 -0.324035,-0.46805 -0.972105,-0.9361 l -5.976647,-3.81641 v -2.16024 q 0,-0.18002 0.07201,-0.50405 0.07201,-0.32404 0.360039,-0.64807 0.18002,-0.18002 0.468051,-0.39605 0.324035,-0.21602 0.900098,-0.21602 0.504054,0 0.756081,0.18002 0.288032,0.14402 0.432047,0.32404 0.360039,0.39604 0.396043,0.79208 0.07201,0.39604 0.07201,0.50406 v 0.54005 l 4.24846,2.7363 v -6.04865 q 0,-0.10802 -0.07201,-0.54006 -0.07201,-0.46805 -0.396043,-0.97211 -0.288031,-0.54006 -0.936101,-0.9361 -0.64807,-0.39604 -1.800195,-0.39604 h -6.156667 q -0.108011,0 -0.504054,0.072 -0.396043,0.036 -0.864094,0.32403 -0.432047,0.25203 -0.792086,0.79209 -0.360039,0.54005 -0.360039,1.51216 v 5.43659 q 0,0 0.036,0.28803 0.07201,0.25203 0.252028,0.64807 0.180019,0.39604 0.576062,0.86409 0.432047,0.46805 1.152125,0.9001 l 5.616608,3.52838 v 2.01622 q 0,0.18002 -0.036,0.64807 -0.036,0.43205 -0.396043,0.8641 -0.180019,0.18001 -0.468051,0.36003 -0.252027,0.14402 -0.756081,0.14402 -0.504055,0 -0.82809,-0.14402 -0.324035,-0.18002 -0.504055,-0.36003 -0.396043,-0.39605 -0.432046,-0.82809 -0.036,-0.46806 -0.036,-0.54006 v -0.68408 l -4.176453,-2.55627 z"
           id="path8" /><path
           style="font-size:36.0039px;font-family:Diskun;-inkscape-font-specification:Diskun;opacity:1;fill:#000000;stroke-width:3.00032"
           d="m 30.626462,141.96847 v -23.9786 h 6.588714 v 23.9786 0 z"
           id="path19" /><path
           style="font-size:36.0039px;font-family:Diskun;-inkscape-font-specification:Diskun;opacity:1;fill:#ffc600;fill-opacity:1;stroke-width:3.00032"
           d="m 36.135059,140.88835 v -21.81836 h -4.464483 v 21.81836 0 z"
           id="path7" /><path
           id="path18"
           style="font-size:36.0039px;font-family:Diskun;-inkscape-font-specification:Diskun;opacity:1;fill:#000000;stroke-width:3.00032"
           d="m 20.293335,122.88656 v 14.04152 h 1.908411 c 0.144015,0 0.299653,-0.0243 0.467671,-0.0724 0.168018,-0.072 0.324173,-0.19165 0.468189,-0.35967 0.144016,-0.16801 0.264175,-0.37234 0.360185,-0.61236 0.09601,-0.26403 0.144177,-0.60017 0.144177,-1.00821 v -1.2237 -1.98024 -2.30425 -2.16059 -1.58389 -0.64802 c 0,-0.048 -0.02434,-0.25233 -0.07235,-0.61237 -0.024,-0.38404 -0.167987,-0.73183 -0.432015,-1.04386 -0.264029,-0.28803 -0.611817,-0.43201 -1.043864,-0.43201 z m 1.080037,1.08003 h 0.72037 c 0.09601,0 0.191828,0.0238 0.287838,0.0718 0.09601,0.12001 0.155834,0.27617 0.179834,0.46819 0.024,0.16802 0.03617,0.312 0.03617,0.43202 v 0.75602 1.62006 2.16059 2.23191 1.94458 1.2237 c 0.024,0.45604 -0.03582,0.74453 -0.179834,0.86454 -0.120011,0.096 -0.204174,0.14367 -0.252181,0.14367 h -0.7922 z" /><path
           id="path16"
           style="font-size:36.0039px;font-family:Diskun;-inkscape-font-specification:Diskun;opacity:1;fill:#000000;stroke-width:3.00032"
           d="m 15.108639,117.9897 v 24.01455 h 10.189042 c 0.336037,0 0.720337,-0.0598 1.152384,-0.17983 0.456049,-0.12001 0.888001,-0.33599 1.296045,-0.64802 0.408045,-0.31203 0.744179,-0.72017 1.008207,-1.22422 0.288031,-0.52806 0.432015,-1.18815 0.432015,-1.98024 v -16.12976 l -0.07183,-0.61185 c -0.04801,-0.40804 -0.216331,-0.85217 -0.504362,-1.33222 -0.264029,-0.48005 -0.69598,-0.91201 -1.296045,-1.29605 -0.600065,-0.40805 -1.440143,-0.61236 -2.52026,-0.61236 z m 6.264733,5.97689 h 0.72037 c 0.09601,0 0.191828,0.0238 0.287838,0.0718 0.09601,0.12001 0.155834,0.27617 0.179834,0.46819 0.024,0.16802 0.03617,0.312 0.03617,0.43202 v 0.75602 1.62006 2.16059 2.23191 1.94458 1.2237 c 0.024,0.45604 -0.03582,0.74453 -0.179834,0.86454 -0.120011,0.096 -0.204174,0.14367 -0.252181,0.14367 h -0.7922 z" /><path
           id="text7"
           style="font-size:36.0039px;font-family:Diskun;-inkscape-font-specification:Diskun;opacity:1;fill:#ffc600;fill-opacity:1;stroke-width:3.00032"
           inkscape:label="text7"
           d="m 16.188676,119.06973 v 21.85448 h 9.109005 c 0.07201,0 0.251987,-0.0116 0.540018,-0.0356 0.312034,-0.048 0.636514,-0.16816 0.972551,-0.36019 0.336036,-0.19202 0.635658,-0.47999 0.899687,-0.86403 0.264028,-0.40804 0.396358,-0.97232 0.396358,-1.6924 v -16.12976 c 0,-0.072 -0.02434,-0.25199 -0.07235,-0.54002 -0.04801,-0.31204 -0.17982,-0.62383 -0.395842,-0.93586 -0.216024,-0.33604 -0.552158,-0.63618 -1.008207,-0.90021 -0.432047,-0.26402 -1.043978,-0.39636 -1.836064,-0.39636 z m 4.104659,3.81683 h 1.800407 c 0.432047,0 0.779835,0.14398 1.043864,0.43201 0.264028,0.31203 0.408012,0.65982 0.432015,1.04386 0.04801,0.36004 0.07235,0.56436 0.07235,0.61237 v 0.64802 1.58389 2.16059 2.30425 1.98024 1.2237 c 0,0.40804 -0.04817,0.74418 -0.144177,1.00821 -0.09601,0.24002 -0.216169,0.44435 -0.360185,0.61236 -0.144016,0.16802 -0.300171,0.28766 -0.468189,0.35967 -0.168018,0.048 -0.323656,0.0724 -0.467671,0.0724 h -1.908411 z"
           sodipodi:nodetypes="ccscscsscccsccsccscccccscscscc" /></g><path
         d="m 101.59158,144.79678 v -1.15187 h -0.4206 v -0.27147 h 1.19871 v 0.27147 h -0.4206 v 1.15187 z m 2.37926,0 h -0.3556 v -0.94348 l -0.25905,0.60892 h -0.24376 l -0.25905,-0.60892 v 0.94348 h -0.33648 v -1.42334 h 0.412 l 0.31545,0.70259 0.31449,-0.70259 h 0.412 z"
         id="text1"
         style="font-weight:bold;font-size:1.9577px;font-family:Tahoma;-inkscape-font-specification:'Tahoma, Bold';display:inline;opacity:1;fill:#1a1a1a;stroke-width:0.163141"
         aria-label="TM" /></g></g></svg>
