<?xml version="1.0" encoding="UTF-8" standalone="no"?>
<!-- Created with Inkscape (http://www.inkscape.org/) -->

<svg
   xmlns:svg="http://www.w3.org/2000/svg"
   xmlns="http://www.w3.org/2000/svg"
   version="1.1"
   width="347.08755"
   height="338.375"
   viewBox="0 0 347.08755 338.375"
   id="Layer_1"
   xml:space="preserve"><defs
   id="defs77" />
<g
   transform="translate(-223.251,-76.410998)"
   id="g3">
	<path
   d="m 285.191,301.991 c -6.732,9.14 -13.134,10.857 -16.566,12.771 -3.398,1.915 -7.063,2.871 -10.923,2.871 -10.823,0 -19.271,-3.53 -25.344,-10.56 -6.072,-7.062 -9.107,-16.961 -9.107,-29.799 0,-15.18 3.829,-28.05 11.518,-38.677 7.688,-10.593 17.886,-15.872 30.59,-15.872 9.637,0 17.523,2.706 23.694,8.15 6.171,5.413 9.241,13.927 9.241,25.509 h -18.646 c 0,-5.545 -1.22,-9.438 -3.663,-11.682 -2.441,-2.211 -5.939,-3.333 -10.527,-3.333 -7.491,0 -13.266,3.663 -17.391,10.956 -4.093,7.327 -6.171,15.643 -6.171,24.98 0,6.37 1.354,11.584 3.993,15.609 2.673,4.061 6.666,6.073 11.98,6.073 5.543,0 9.834,-1.584 12.936,-4.72 3.068,-3.102 5.345,-7.128 6.798,-12.045 h -17.359 l 2.806,-16.896 h 33.857 l -2.87,16.368 c -10e-4,0.002 -2.148,11.157 -8.846,20.297 z"
   id="path5" />
	<path
   d="m 364.622,399.144 c -6.698,9.142 -13.134,10.857 -16.532,12.771 -3.432,1.914 -7.063,2.871 -10.957,2.871 -10.823,0 -19.271,-3.53 -25.343,-10.593 -6.039,-7.028 -9.075,-16.962 -9.075,-29.766 0,-15.182 3.829,-28.083 11.516,-38.676 7.689,-10.595 17.887,-15.907 30.559,-15.907 9.668,0 17.556,2.708 23.727,8.151 6.138,5.445 9.239,13.926 9.239,25.51 h -18.677 c 0,-5.545 -1.222,-9.439 -3.664,-11.649 -2.409,-2.244 -5.939,-3.366 -10.527,-3.366 -7.458,0 -13.232,3.663 -17.357,10.988 -4.125,7.294 -6.171,15.609 -6.171,24.949 0,6.401 1.32,11.615 3.993,15.642 2.673,4.025 6.666,6.038 11.979,6.038 5.512,0 9.834,-1.55 12.903,-4.686 3.07,-3.135 5.347,-7.16 6.831,-12.077 h -17.391 l 2.839,-16.896 h 33.857 l -2.871,16.367 c -10e-4,0 -2.146,11.154 -8.878,20.329 z"
   id="path7" />
	<polygon
   points="446.165,225.069 431.019,315.423 414.716,315.423 427.554,245.396 399.239,315.423 385.874,315.423 379.704,245.43 369.968,315.423 353.468,315.423 368.548,225.069 391.682,225.069 396.863,288.692 422.868,224.903 "
   id="polygon9" />
	<polygon
   points="463.423,260.048 490.056,260.048 487.282,277.571 460.652,277.571 457.22,296.81 487.282,296.81 484.313,315.423 436.925,315.423 451.907,224.969 498.734,224.969 495.863,243.713 466.395,243.713 "
   id="polygon11" />
	<path
   d="m 321.491,224.903 -36.432,90.52 h 17.753 l 6.502,-17.656 h 23.232 l 1.518,17.656 h 17.193 l -10.296,-90.52 h -19.47 z m -6.534,57.42 13.2,-36.002 3.069,36.002 h -16.269 z"
   id="path13" />
	<polygon
   points="399.438,357.201 426.035,357.201 423.297,374.69 396.665,374.69 393.2,393.93 423.297,393.93 420.327,412.574 372.938,412.574 387.92,322.089 434.747,322.089 431.877,340.831 402.407,340.831 "
   id="polygon15" />
	<path
   d="m 458.31,322.055 -36.433,90.52 h 17.787 l 6.468,-17.655 h 23.265 l 1.519,17.655 h 17.16 l -10.297,-90.52 H 458.31 z m -6.503,57.387 13.168,-36.004 3.103,36.004 h -16.271 z"
   id="path17" />
	<path
   d="m 515.597,361.853 3.96,-22.274 h 9.504 c 3.499,0 6.105,0.627 7.854,1.882 1.749,1.285 2.606,3.827 2.606,7.655 0,4.29 -1.418,7.458 -4.224,9.57 -2.838,2.112 -6.435,3.167 -10.791,3.167 h -8.909 z m -10.725,-39.764 -14.982,90.485 h 17.325 l 5.809,-34.485 h 8.02 l 13.396,34.485 h 19.866 l -14.85,-38.181 c 5.182,-2.641 9.637,-7.029 12.738,-11.616 3.234,-4.72 4.851,-10.229 4.851,-16.533 0,-8.546 -1.914,-14.684 -5.775,-18.48 -3.826,-3.795 -9.273,-5.675 -16.268,-5.675 h -30.13 z"
   id="path19" />
</g>
<path
   d="m 47.486,41.308002 c 27.72,-31.779 61.116,-48.807 74.613,-38.115 13.464,10.725 1.914,45.177 -25.839,76.923 C 68.54,111.895 35.144,128.923 21.68,118.23 8.183,107.506 19.767,73.054002 47.486,41.308002 z"
   id="path21"
   style="fill:#ff0000" />
<path
   d="m 157.672,41.408002 c 28.48,-31.548 62.766,-48.511 76.626,-37.852 13.827,10.659 1.947,44.88 -26.531,76.428 C 179.288,111.565 145,128.527 131.173,117.868 117.347,107.21 129.194,72.988002 157.672,41.408002 z"
   id="path23"
   style="fill:#00cc99" />
<path
   d="m 264.692,41.408002 c 28.479,-31.548 62.8,-48.511 76.626,-37.852 13.827,10.659 1.946,44.88 -26.5,76.428 C 286.339,111.565 252.02,128.527 238.193,117.868 224.367,107.21 236.246,72.988002 264.692,41.408002 z"
   id="path25"
   style="fill:#0099ff" />








</svg>