<?xml version="1.0" encoding="UTF-8" standalone="no"?>
<!-- Created with Inkscape (http://www.inkscape.org/) -->

<svg
   width="272.08038mm"
   height="57.768261mm"
   viewBox="0 0 272.08038 57.768261"
   version="1.1"
   id="svg8"
   sodipodi:docname="Neo_Geo_Pocket_logo.svg"
   inkscape:version="1.1 (c68e22c387, 2021-05-23)"
   xmlns:inkscape="http://www.inkscape.org/namespaces/inkscape"
   xmlns:sodipodi="http://sodipodi.sourceforge.net/DTD/sodipodi-0.dtd"
   xmlns="http://www.w3.org/2000/svg"
   xmlns:svg="http://www.w3.org/2000/svg"
   xmlns:rdf="http://www.w3.org/1999/02/22-rdf-syntax-ns#"
   xmlns:cc="http://creativecommons.org/ns#"
   xmlns:dc="http://purl.org/dc/elements/1.1/">
  <defs
     id="defs2" />
  <sodipodi:namedview
     id="base"
     pagecolor="#ffffff"
     bordercolor="#666666"
     borderopacity="1.0"
     inkscape:pageopacity="0.0"
     inkscape:pageshadow="2"
     inkscape:zoom="0.98994949"
     inkscape:cx="498.51028"
     inkscape:cy="163.64471"
     inkscape:document-units="mm"
     inkscape:current-layer="layer1"
     showgrid="false"
     inkscape:measure-start="0,0"
     inkscape:measure-end="0,0"
     fit-margin-top="0"
     fit-margin-left="0"
     fit-margin-right="0"
     fit-margin-bottom="0"
     inkscape:window-width="1920"
     inkscape:window-height="1046"
     inkscape:window-x="-11"
     inkscape:window-y="-11"
     inkscape:window-maximized="1"
     inkscape:pagecheckerboard="0">
    <inkscape:grid
       type="xygrid"
       id="grid39"
       originx="0"
       originy="0" />
  </sodipodi:namedview>
  <metadata
     id="metadata5">
    <rdf:RDF>
      <cc:Work
         rdf:about="">
        <dc:format>image/svg+xml</dc:format>
        <dc:type
           rdf:resource="http://purl.org/dc/dcmitype/StillImage" />
      </cc:Work>
    </rdf:RDF>
  </metadata>
  <g
     inkscape:label="Layer 1"
     inkscape:groupmode="layer"
     id="layer1"
     transform="translate(142.85556,-76.639879)">
    <g
       id="g913">
      <path
         sodipodi:nodetypes="ccccccccccc"
         inkscape:connector-curvature="0"
         id="path826"
         d="m -123.96237,132.42879 h -2.60587 l -13.61463,-19.5775 v 19.5775 h -2.67269 v -23.58654 h 3.27405 l 12.96257,18.70887 v -18.70887 h 2.65657 z"
         style="fill:#000000;fill-opacity:1;stroke:none;stroke-width:0.265;stroke-linecap:butt;stroke-linejoin:miter;stroke-miterlimit:4;stroke-dasharray:none;stroke-opacity:1" />
      <path
         inkscape:connector-curvature="0"
         id="path833"
         d="m -108.26027,132.42879 h -13.16303 l -0.0507,-23.58654 h 13.16303 v 2.66593 h -10.51529 v 7.46503 h 9.82738 v 2.64584 h -9.82738 v 8.59895 h 10.53608 z"
         style="fill:#000000;fill-opacity:1;stroke:none;stroke-width:0.264583px;stroke-linecap:butt;stroke-linejoin:miter;stroke-opacity:1" />
      <path
         id="path837"
         transform="scale(0.26458333)"
         d="m -358.22461,408.83398 a 47.111303,47.111303 0 0 0 -47.11133,47.11133 47.111303,47.111303 0 0 0 47.11133,47.11133 47.111303,47.111303 0 0 0 47.11133,-47.11133 47.111303,47.111303 0 0 0 -47.11133,-47.11133 z m 0.125,10.36524 a 36.872255,36.872255 0 0 1 36.87305,36.87305 36.872255,36.872255 0 0 1 -36.87305,36.87109 36.872255,36.872255 0 0 1 -36.87109,-36.87109 36.872255,36.872255 0 0 1 36.87109,-36.87305 z"
         style="opacity:1;fill:#000000;fill-opacity:1;fill-rule:nonzero;stroke:none;stroke-width:0.975692;stroke-linecap:round;stroke-linejoin:round;stroke-miterlimit:4;stroke-dasharray:none;stroke-opacity:1;paint-order:stroke fill markers"
         inkscape:connector-curvature="0" />
      <path
         id="path837-2"
         d="m -27.962878,108.17066 a 12.464866,12.464866 0 0 0 -12.46488,12.46487 12.464866,12.464866 0 0 0 12.46488,12.46487 12.464866,12.464866 0 0 0 12.464872,-12.46487 12.464866,12.464866 0 0 0 -12.464872,-12.46487 z m 0.03307,2.74247 a 9.7557841,9.7557841 0 0 1 9.755997,9.75599 9.7557841,9.7557841 0 0 1 -9.755994,9.75547 9.7557841,9.7557841 0 0 1 -9.755483,-9.75547 9.7557841,9.7557841 0 0 1 9.755483,-9.75599 z"
         style="opacity:1;fill:#000000;fill-opacity:1;fill-rule:nonzero;stroke:none;stroke-width:0.258152;stroke-linecap:round;stroke-linejoin:round;stroke-miterlimit:4;stroke-dasharray:none;stroke-opacity:1;paint-order:stroke fill markers"
         inkscape:connector-curvature="0" />
      <g
         style="fill:#290063;fill-opacity:1;stroke:none"
         id="g879">
        <path
           style="color:#000000;font-style:normal;font-variant:normal;font-weight:normal;font-stretch:normal;font-size:medium;line-height:normal;font-family:sans-serif;font-variant-ligatures:normal;font-variant-position:normal;font-variant-caps:normal;font-variant-numeric:normal;font-variant-alternates:normal;font-feature-settings:normal;text-indent:0;text-align:start;text-decoration:none;text-decoration-line:none;text-decoration-style:solid;text-decoration-color:#000000;letter-spacing:normal;word-spacing:normal;text-transform:none;writing-mode:lr-tb;direction:ltr;text-orientation:mixed;dominant-baseline:auto;baseline-shift:baseline;text-anchor:start;white-space:normal;shape-padding:0;clip-rule:nonzero;display:inline;overflow:visible;visibility:visible;opacity:1;isolation:auto;mix-blend-mode:normal;color-interpolation:sRGB;color-interpolation-filters:linearRGB;solid-color:#000000;solid-opacity:1;vector-effect:none;fill:#000000;fill-opacity:1;fill-rule:nonzero;stroke:none;stroke-width:11.1761;stroke-linecap:butt;stroke-linejoin:miter;stroke-miterlimit:4;stroke-dasharray:none;stroke-dashoffset:0;stroke-opacity:1;paint-order:stroke fill markers;color-rendering:auto;image-rendering:auto;shape-rendering:auto;text-rendering:auto;enable-background:accumulate"
           d="m -258.32617,408.35547 c -5.03324,0.0724 -10.12802,0.95528 -15.09961,2.7207 -22.72727,8.07054 -35.83649,32.0679 -30.42774,55.62891 5.40874,23.56101 27.68153,39.38174 51.63672,36.64453 23.9552,-2.73721 42.10548,-25.13444 42.10547,-45.74023 h -11.17578 c 0,15.57342 -13.82279,32.53696 -32.19922,34.63671 -18.37643,2.0998 -35.30832,-9.91121 -39.4707,-28.04297 -4.16239,-18.13171 5.83504,-36.40061 23.27539,-42.59374 15.59497,-5.53781 32.57136,0.18129 41.78906,13.41015 h 12.92578 c -7.93017,-16.23004 -24.06803,-26.10884 -41.20703,-26.64648 -0.71603,-0.0225 -1.43331,-0.0279 -2.15234,-0.0176 z"
           transform="scale(0.26458333)"
           id="path861"
           inkscape:connector-curvature="0" />
        <path
           style="fill:#000000;fill-opacity:1;stroke:none;stroke-width:0.264583px;stroke-linecap:butt;stroke-linejoin:miter;stroke-opacity:1"
           d="m -55.591797,121.07561 h -16.50716 v 2.66955 h 14.457589 z"
           id="path871"
           inkscape:connector-curvature="0"
           sodipodi:nodetypes="ccccc" />
      </g>
      <path
         inkscape:connector-curvature="0"
         id="path833-0"
         d="m -40.908349,132.42879 h -13.16303 l -0.0507,-23.58654 h 13.16303 v 2.66593 h -10.51529 v 7.46503 h 9.82738 v 2.64584 h -9.82738 v 8.59895 h 10.53608 z"
         style="fill:#000000;fill-opacity:1;stroke:none;stroke-width:0.264583px;stroke-linecap:butt;stroke-linejoin:miter;stroke-opacity:1" />
      <path
         id="path837-2-9"
         d="m 26.827372,108.17066 a 12.464866,12.464866 0 0 0 -12.46488,12.46487 12.464866,12.464866 0 0 0 12.46488,12.46487 12.464866,12.464866 0 0 0 12.464872,-12.46487 12.464866,12.464866 0 0 0 -12.464872,-12.46487 z m 0.03307,2.74247 a 9.7557841,9.7557841 0 0 1 9.755997,9.75599 9.7557841,9.7557841 0 0 1 -9.755994,9.75547 9.7557841,9.7557841 0 0 1 -9.755483,-9.75547 9.7557841,9.7557841 0 0 1 9.755483,-9.75599 z"
         style="opacity:1;fill:#000000;fill-opacity:1;fill-rule:nonzero;stroke:none;stroke-width:0.258152;stroke-linecap:round;stroke-linejoin:round;stroke-miterlimit:4;stroke-dasharray:none;stroke-opacity:1;paint-order:stroke fill markers"
         inkscape:connector-curvature="0" />
      <path
         id="path861-6"
         transform="scale(0.26458333)"
         d="m 205.33398,408.35352 v 0.002 c -5.03323,0.0726 -10.12801,0.95528 -15.0996,2.7207 -22.72727,8.07054 -35.83649,32.0679 -30.42774,55.62891 5.40874,23.56101 27.68153,39.38174 51.63672,36.64453 16.67987,-1.9059 30.53637,-13.34655 37.41992,-27.07422 h -12.77734 c -5.76476,8.28165 -15.04015,14.72844 -25.91211,15.9707 -18.37643,2.0998 -35.30833,-9.91121 -39.47071,-28.04297 -4.16238,-18.13171 5.83505,-36.40061 23.2754,-42.59374 15.59497,-5.53781 32.57136,0.18139 41.78906,13.41015 h 12.92578 c -7.93017,-16.23005 -24.06803,-26.10885 -41.20703,-26.64648 -0.71603,-0.0227 -1.43331,-0.0271 -2.15235,-0.0195 z"
         style="color:#000000;font-style:normal;font-variant:normal;font-weight:normal;font-stretch:normal;font-size:medium;line-height:normal;font-family:sans-serif;font-variant-ligatures:normal;font-variant-position:normal;font-variant-caps:normal;font-variant-numeric:normal;font-variant-alternates:normal;font-feature-settings:normal;text-indent:0;text-align:start;text-decoration:none;text-decoration-line:none;text-decoration-style:solid;text-decoration-color:#000000;letter-spacing:normal;word-spacing:normal;text-transform:none;writing-mode:lr-tb;direction:ltr;text-orientation:mixed;dominant-baseline:auto;baseline-shift:baseline;text-anchor:start;white-space:normal;shape-padding:0;clip-rule:nonzero;display:inline;overflow:visible;visibility:visible;opacity:1;isolation:auto;mix-blend-mode:normal;color-interpolation:sRGB;color-interpolation-filters:linearRGB;solid-color:#000000;solid-opacity:1;vector-effect:none;fill:#000000;fill-opacity:1;fill-rule:nonzero;stroke:none;stroke-width:11.1761;stroke-linecap:butt;stroke-linejoin:miter;stroke-miterlimit:4;stroke-dasharray:none;stroke-dashoffset:0;stroke-opacity:1;paint-order:stroke fill markers;color-rendering:auto;image-rendering:auto;shape-rendering:auto;text-rendering:auto;enable-background:accumulate"
         inkscape:connector-curvature="0" />
      <path
         inkscape:connector-curvature="0"
         id="path833-1"
         d="M 105.82262,132.42879 H 92.659592 l -0.0507,-23.58654 h 13.163028 v 2.66593 H 95.256632 v 7.46503 h 9.827378 v 2.64584 h -9.827378 v 8.59895 h 10.536078 z"
         style="fill:#000000;fill-opacity:1;stroke:none;stroke-width:0.264583px;stroke-linecap:butt;stroke-linejoin:miter;stroke-opacity:1" />
      <g
         style="fill:#290063;fill-opacity:1;stroke:none"
         id="g955">
        <path
           style="opacity:1;fill:#000000;fill-opacity:1;fill-rule:nonzero;stroke:none;stroke-width:2.89033;stroke-linecap:butt;stroke-linejoin:miter;stroke-miterlimit:4;stroke-dasharray:none;stroke-opacity:1;paint-order:stroke fill markers"
           d="m 68.872604,108.84225 h 2.688807 v 23.58654 h -2.688807 z"
           id="rect945"
           inkscape:connector-curvature="0" />
        <path
           style="fill:#000000;fill-opacity:1;stroke:none;stroke-width:0.264583px;stroke-linecap:butt;stroke-linejoin:miter;stroke-opacity:1"
           d="m 84.858068,132.42879 h 3.541328 l -12.227582,-12.69531 -2.204972,1.67044 z"
           id="path947"
           inkscape:connector-curvature="0"
           sodipodi:nodetypes="ccccc" />
        <path
           style="fill:#000000;fill-opacity:1;stroke:none;stroke-width:0.264583px;stroke-linecap:butt;stroke-linejoin:miter;stroke-opacity:1"
           d="m 84.791251,108.84225 h 3.47451 l -18.107512,18.77569 0.734992,-4.87768 z"
           id="path949"
           inkscape:connector-curvature="0"
           sodipodi:nodetypes="ccccc" />
      </g>
      <g
         style="fill:#290063;fill-opacity:1;stroke:none"
         id="g965">
        <path
           style="opacity:1;fill:#000000;fill-opacity:1;fill-rule:nonzero;stroke:none;stroke-width:2.957;stroke-linecap:butt;stroke-linejoin:miter;stroke-miterlimit:4;stroke-dasharray:none;stroke-opacity:1;paint-order:stroke fill markers"
           d="m 109.98141,108.84225 h 19.2434 v 2.66593 h -19.2434 z"
           id="rect957"
           inkscape:connector-curvature="0"
           sodipodi:nodetypes="ccccc" />
        <path
           style="opacity:1;fill:#000000;fill-opacity:1;fill-rule:nonzero;stroke:none;stroke-width:2.957;stroke-linecap:butt;stroke-linejoin:miter;stroke-miterlimit:4;stroke-dasharray:none;stroke-opacity:1;paint-order:stroke fill markers"
           d="m 118.19994,108.84225 h 2.72339 v 23.58654 h -2.72339 z"
           id="rect960"
           inkscape:connector-curvature="0"
           sodipodi:nodetypes="ccccc" />
      </g>
      <path
         sodipodi:nodetypes="cccccccssccccccsscc"
         inkscape:connector-curvature="0"
         id="path990"
         d="m -7.4688739,109.64881 3.3759716,-9.731326 8.9644502,0.02691 0.076547,4.362966 -5.91644503,-0.0476 -1.20871527,4.47863 6.0750432,4.39447 c 2.9937379,-1.22995 5.1306044,-3.90547 5.5700017,-6.97404 0.4393962,-3.06857 -0.8889904,-6.0392 -3.4625967,-7.743262 -2.5736075,-1.704075 -5.96733008,-1.816107 -8.8674945,-0.376889 l -9.7559903,4.841441 14.7025554,29.62709 -3.830573,1.90094 -16.6925974,-33.63722 13.8858273,-6.890886 c 4.54854388,-2.257231 9.9614941,-1.709992 13.828379,1.398015 3.8668847,3.10801 5.4682927,8.198561 4.0910817,13.004741 -1.377209,4.80619 -5.655911,8.37354 -10.2058519,9.8062 z"
         style="fill:#e81a2e;fill-opacity:1;stroke:none;stroke-width:0.264583px;stroke-linecap:butt;stroke-linejoin:miter;stroke-opacity:1" />
      <path
         inkscape:connector-curvature="0"
         id="path1001"
         d="M 3.7325149,76.639879 2.1733631,88.2154 5.1026784,88.782365 9.2131696,77.443078 Z"
         style="fill:#e81a2e;fill-opacity:1;stroke:none;stroke-width:0.264583px;stroke-linecap:butt;stroke-linejoin:miter;stroke-opacity:1" />
      <path
         inkscape:connector-curvature="0"
         id="path1003"
         d="m 15.213541,80.2779 -5.7641363,10.016368 2.5513393,1.700893 7.276042,-8.835192 z"
         style="fill:#008c84;fill-opacity:1;stroke:none;stroke-width:0.264583px;stroke-linecap:butt;stroke-linejoin:miter;stroke-opacity:1" />
      <path
         inkscape:connector-curvature="0"
         id="path1005"
         d="m 22.914806,87.223213 -8.362723,7.46503 1.937128,2.882067 9.21317,-5.764136 z"
         style="fill:#00adf7;fill-opacity:1;stroke:none;stroke-width:0.264583px;stroke-linecap:butt;stroke-linejoin:miter;stroke-opacity:1" />
      <g
         style="fill:#e81a2e;fill-opacity:1"
         transform="matrix(1.2391736,0,0,1.2391736,46.627785,-68.200556)"
         id="g880">
        <g
           style="fill:#e81a2e;fill-opacity:1"
           id="g1100"
           transform="matrix(0.48287031,0,0,0.48287031,-15.232863,115.00469)" />
      </g>
    </g>
  </g>
</svg>
