<?xml version="1.0" encoding="UTF-8" standalone="no"?>
<svg
   version="1.1"
   width="499.62701"
   height="72.264999"
   viewBox="0 0 499.627 72.264998"
   id="svg24"
   sodipodi:docname="Nintendo_64_Wordmark.svg"
   inkscape:version="1.3 (0e150ed6c4, 2023-07-21)"
   xmlns:inkscape="http://www.inkscape.org/namespaces/inkscape"
   xmlns:sodipodi="http://sodipodi.sourceforge.net/DTD/sodipodi-0.dtd"
   xmlns="http://www.w3.org/2000/svg"
   xmlns:svg="http://www.w3.org/2000/svg">
  <defs
     id="defs24" />
  <sodipodi:namedview
     id="namedview24"
     pagecolor="#ffffff"
     bordercolor="#000000"
     borderopacity="0.25"
     inkscape:showpageshadow="2"
     inkscape:pageopacity="0.0"
     inkscape:pagecheckerboard="0"
     inkscape:deskcolor="#d1d1d1"
     showgrid="false"
     inkscape:zoom="0.6727002"
     inkscape:cx="209.60303"
     inkscape:cy="134.53244"
     inkscape:window-width="1600"
     inkscape:window-height="837"
     inkscape:window-x="-8"
     inkscape:window-y="-8"
     inkscape:window-maximized="1"
     inkscape:current-layer="g24" />
  <g
     transform="scale(2.4919039)"
     id="g24">
    <path
       style="fill:#0124a6"
       d="m 125.2,6.6 h 9.7 c 8.3,0 10.9,4.7 10.9,11.1 0,6.6 -4.1,10.7 -10.4,10.7 h -10.2 z m 8,16.9 h 0.8 c 1.3,0 2.2,-0.4 2.7,-1.3 0.5,-0.9 0.6,-2.6 0.6,-4.7 0,-2.1 -0.1,-3.8 -0.6,-4.7 -0.5,-0.9 -1.4,-1.3 -2.7,-1.3 h -0.8 v 11.9 0 z"
       id="path13" />
    <path
       style="fill:#0124a6"
       d="m 158.6,6 c 7.1,0 10.7,4.7 10.7,11.5 0,6.8 -3.5,11.5 -10.7,11.5 -7.1,0 -10.7,-4.7 -10.7,-11.5 0,-6.8 3.5,-11.5 10.7,-11.5 z m 0,17.4 c 1.3,0 2.2,-0.6 2.2,-6 0,-5.2 -0.9,-6 -2.2,-6 -1.3,0 -2.2,0.7 -2.2,6 2.7e-4,5.3 0.9,6 2.2,6 z"
       id="path14" />
    <path
       style="fill:#0124a6"
       d="m 173.1,23.8 c -1.4,0 -2.6,1.2 -2.6,2.6 0,1.4 1.2,2.6 2.6,2.6 1.4,0 2.6,-1.2 2.6,-2.6 0,-1.4 -1.2,-2.6 -2.6,-2.6 z m 0,4.7 c -1.2,0 -2.1,-1 -2.1,-2.1 0,-1.2 1,-2.1 2.1,-2.1 1.2,0 2.1,1 2.1,2.1 0,1.2 -1,2.1 -2.1,2.1 z"
       id="path15" />
    <path
       style="fill:#0124a6"
       d="m 172.7,27.8 h -0.6 V 25 h 1.2 c 0.5,0 1,0.2 1,0.7 0,0.4 -0.2,0.6 -0.6,0.7 v 0 c 0.5,0.1 0.5,0.3 0.5,0.7 0,0.2 0.1,0.5 0.2,0.7 h -0.7 c -0.1,-0.3 -0.1,-0.5 -0.1,-0.8 0,-0.2 -0.1,-0.4 -0.3,-0.4 h -0.6 v 1.1 0 z m 0,-1.6 h 0.5 c 0.3,0 0.4,-0.1 0.4,-0.4 0,-0.3 -0.2,-0.4 -0.4,-0.4 h -0.5 z"
       id="path16" />
    <path
       style="fill:#0124a6"
       d="M 14.3,6.6 V 19.1 H 14.2 L 9.8,6.6 H 0 V 28.4 H 6.6 V 15.8 h 0.1 l 4.4,12.6 v 0 h 9.8 V 6.6 Z"
       id="path17" />
    <path
       style="fill:#0124a6"
       d="M 51.3,6.6 V 19.1 H 51.2 L 46.8,6.6 H 37 v 21.8 h 6.6 V 15.8 h 0.1 l 4.4,12.6 v 0 h 9.8 V 6.6 Z"
       id="path18" />
    <path
       style="fill:#0124a6"
       d="m 115,6.6 v 12.5 h -0.1 L 110.5,6.6 h -9.8 v 21.8 h 6.6 V 15.8 h 0.1 l 4.4,12.6 v 0 h 9.8 V 6.6 Z"
       id="path19" />
    <path
       style="fill:#0124a6"
       d="M 33.1,6.6 V 28.4 H 24.9 V 6.6 6.6 Z"
       id="path20" />
    <path
       style="fill:#0124a6"
       d="m 65.5,28.4 v -15.9 0 H 60.3 V 6.6 h 18.6 v 5.9 h -5.2 v 15.9 z"
       id="path21" />
    <path
       style="fill:#0124a6"
       d="m 89.4,12.4 v 2.3 h 7.5 v 5.6 h -7.5 v 2.4 h 8.4 v 5.7 H 81.4 v -21.8 0 h 16.2 v 5.8 z"
       id="path22" />
    <path
       style="fill:#ff2d1e"
       d="m 184,3.7 c -0.4,0 -0.9,0 -1.5,0 -3.5,0.2 -4.8,1.6 -5.3,3.3 h 0.1 c 0.9,-0.8 1.9,-1.1 3.3,-1.1 2.7,0 5.2,2 5.2,5.7 0,3.6 -2.7,6.4 -6.4,6.4 -4.9,0 -7,-3.7 -7,-7.7 0,-3.2 1.1,-6 3,-7.7 1.8,-1.7 4.1,-2.5 6.9,-2.6 0.7,0 1.2,0 1.6,0 v 3.7 h -2.7e-4 z m -4.6,10.8 c 1.1,0 1.8,-1.1 1.8,-2.6 0,-1.2 -0.6,-2.6 -2.1,-2.6 -0.9,0 -1.6,0.6 -1.9,1.3 -0.1,0.2 -0.1,0.5 -0.1,1 0.1,1.4 0.8,2.9 2.3,2.9 z"
       id="path23" />
    <path
       style="fill:#ff2d1e"
       d="m 194.4,17.7 v -3.9 h -7.3 v -3.1 l 5.8,-10.4 h 5.8 v 10 h 1.8 v 3.6 h -1.8 v 3.9 h -4.4 v 0 z m 0,-7.5 v -3 c 0,-1.1 0.1,-2.3 0.1,-3.5 h -0.1 c -0.5,1.2 -1,2.3 -1.6,3.5 l -1.4,2.9 v 0.1 h 3 v -2.7e-4 z"
       id="path24" />
  </g>
</svg>
