<?xml version="1.0" encoding="UTF-8"?>
<!-- Created with Inkscape (http://www.inkscape.org/) -->
<svg width="74.882mm" height="33.053mm" version="1.1" viewBox="0 0 74.882 33.053" xmlns="http://www.w3.org/2000/svg">
 <g transform="translate(-9.8286 -63.014)">
  <g transform="matrix(.26458 0 0 .26458 -21.522 61.935)">
   <path d="m401.51 129c-94.34 0-188.68 0.01-283.02-0.01 0.01-4 0.01-8 0-11.99 94.34 0.01 188.68-0.01 283.02 0z"/>
  </g>
  <path d="m15.139 80.508c1.3385-2.64e-4 2.671-0.08202 3.9285-0.56065 3.3629-1.1589 5.5906-4.7122 5.4795-8.2206-0.09789-1.7198-0.67998-3.4211-1.7198-4.7995-1.5478-2.1881-4.2439-3.429-6.903-3.3629l-5.9822-0.0024v5.0549l-0.015875 0.06959 0.015875-0.0013v18.47h2.4342v-6.6466m-0.02381-14.766c1.3705-0.0026 2.7411-0.03175 4.109 0.03175 2.0373 0.13494 4.0164 1.2726 5.0139 3.0771 1.2488 2.1352 1.106 5.0244-0.43392 6.9744-1.0742 1.4473-2.8231 2.3733-4.6302 2.4024-1.3441 0.01852-2.6609 0.0087-4.0349 0.0087z" stroke-width=".26458"/>
  <path d="m15.652 80.504" stroke-width=".26458"/>
  <g transform="matrix(.26458 0 0 .26458 -21.522 61.935)">
   <path d="m274.11 57.437v-17.327h-13.535c0.92 3.272 1.422 6.719 1.422 10.285 0 2.408-0.234 4.759-0.663 7.043h12.776z"/>
   <path d="m258.03 67.297c-6.217 12.473-19.092 21.045-33.975 21.045-20.958 0-37.948-16.99-37.948-37.948s16.99-37.948 37.948-37.948c13.555 0 25.442 7.112 32.154 17.803h9.542c-7.493-15.484-23.341-26.17-41.697-26.17-25.579 0-46.315 20.736-46.315 46.315s20.736 46.315 46.315 46.315c19.612 0 36.362-12.195 43.115-29.412z"/>
  </g>
  <polygon transform="matrix(.26458 0 0 .26458 -21.522 61.935)" points="324.7 40.11 298.3 40.11 298.3 23.83 325.97 23.83 325.97 6.151 298.3 6.151 290.5 6.151 281.36 6.151 281.36 95.35 298.3 95.35 298.3 57.437 324.7 57.437"/>
  <polygon transform="matrix(.26458 0 0 .26458 -21.522 61.935)" points="344 95.35 360.3 66.833 376.61 95.35 397 95.35 370.5 49.002 395 6.151 374.61 6.151 360.3 31.171 346 6.151 325.61 6.151 350.11 49.002 323.61 95.35"/>
  <g transform="matrix(.26458 0 0 .26458 -21.522 61.935)">
   <path d="m128.27 113v-9.217l-3.894 9.217h-0.896l-3.88-9.217v9.217h-1.037v-10.352h1.611l3.768 8.811 3.754-8.811h1.611v10.352z"/>
   <path d="m134.86 113.18c-2.087 0-3.516-1.261-3.516-4.076v-6.458h1.037v6.458c0 2.115 0.869 3.124 2.493 3.124 1.597 0 2.479-1.008 2.479-3.124v-6.458h1.037v6.458c0 2.815-1.429 4.076-3.53 4.076z"/>
   <path d="m140.43 113v-10.352h1.037v9.413h4.286v0.939z"/>
   <path d="m148.62 103.59v9.413h-1.037v-9.413h-2.367v-0.938h5.771v0.938z"/>
   <path d="m152.07 113v-10.352h1.037v10.352z"/>
   <path d="m164.85 113v-9.217l-3.895 9.217h-0.896l-3.88-9.217v9.217h-1.037v-10.352h1.611l3.768 8.811 3.754-8.811h1.611v10.352z"/>
   <path d="m167.93 113v-10.352h5.659v0.938h-4.623v3.712h4.468v0.938h-4.468v3.824h4.623v0.94z"/>
   <path d="m178.14 113h-2.788v-10.352h2.438c1.877 0 2.97 0.224 3.95 0.813 1.541 0.91 2.353 2.451 2.353 4.398 0 2.984-1.905 5.141-5.953 5.141zm3.026-8.741c-0.785-0.476-1.765-0.672-3.334-0.672h-1.443v8.475h1.443c1.835 0 2.899-0.266 3.726-0.924 0.953-0.771 1.485-1.961 1.485-3.32 0-1.542-0.687-2.844-1.877-3.559z"/>
   <path d="m185.68 113v-10.352h1.037v10.352z"/>
   <path d="m196.77 113-1.499-3.488h-4.819l-1.512 3.488h-1.092l4.44-10.352h1.163l4.454 10.352zm-3.894-9.175-2.031 4.749h4.02z"/>
   <path d="m202.83 113v-10.352h5.659v0.938h-4.623v3.712h4.468v0.938h-4.468v3.824h4.623v0.94z"/>
   <path d="m217.45 113-6.164-9.105v9.105h-1.037v-10.352h1.401l5.799 8.586v-8.586h1.037v10.352z"/>
   <path d="m222.96 103.59v9.413h-1.037v-9.413h-2.367v-0.938h5.771v0.938z"/>
   <path d="m226.4 113v-10.352h5.659v0.938h-4.623v3.712h4.468v0.938h-4.468v3.824h4.623v0.94z"/>
   <path d="m237.79 109.13 2.899 3.866h-1.289l-3.488-4.692c2.899 0 3.88-0.504 3.88-2.367 0-1.723-1.064-2.354-3.474-2.354h-1.457v9.413h-1.037v-10.352h2.563c3.25 0 4.455 1.177 4.455 3.334 1e-3 1.835-1.064 2.942-3.052 3.152z"/>
   <path d="m244.68 103.59v9.413h-1.037v-9.413h-2.367v-0.938h5.771v0.938z"/>
   <path d="m255.43 113-1.499-3.488h-4.819l-1.513 3.488h-1.092l4.44-10.352h1.163l4.454 10.352zm-3.895-9.175-2.031 4.749h4.02z"/>
   <path d="m257.7 113v-10.352h1.037v10.352z"/>
   <path d="m267.98 113-6.164-9.105v9.105h-1.037v-10.352h1.401l5.799 8.586v-8.586h1.037v10.352z"/>
   <path d="m280.76 113v-9.217l-3.894 9.217h-0.896l-3.88-9.217v9.217h-1.037v-10.352h1.611l3.768 8.811 3.754-8.811h1.611v10.352z"/>
   <path d="m283.83 113v-10.352h5.659v0.938h-4.623v3.712h4.468v0.938h-4.468v3.824h4.623v0.94z"/>
   <path d="m298.45 113-6.164-9.105v9.105h-1.037v-10.352h1.401l5.799 8.586v-8.586h1.036v10.352z"/>
   <path d="m303.97 103.59v9.413h-1.037v-9.413h-2.367v-0.938h5.771v0.938z"/>
   <path d="m314.23 108.81h-1.989v4.188h-1.037v-10.352h2.857c2.844 0 3.992 0.966 3.992 3.138 1e-3 1.961-1.008 3.026-3.823 3.026zm-0.519-5.225h-1.471v4.286h1.919c2.059 0 2.844-0.588 2.844-2.087 0-2.101-1.316-2.199-3.292-2.199z"/>
   <path d="m319.41 113v-10.352h1.037v9.413h4.287v0.939z"/>
   <path d="m334.29 113-1.499-3.488h-4.819l-1.512 3.488h-1.092l4.44-10.352h1.163l4.454 10.352zm-3.894-9.175-2.031 4.749h4.02z"/>
   <path d="m339.09 109.54v3.46h-1.037v-3.46l-3.586-6.892h1.149l2.941 5.799 3.012-5.799h1.135z"/>
   <path d="m343.71 113v-10.352h5.659v0.938h-4.623v3.712h4.468v0.938h-4.468v3.824h4.623v0.94z"/>
   <path d="m355.09 109.13 2.899 3.866h-1.289l-3.488-4.692c2.899 0 3.88-0.504 3.88-2.367 0-1.723-1.064-2.354-3.474-2.354h-1.457v9.413h-1.037v-10.352h2.563c3.25 0 4.455 1.177 4.455 3.334 2e-3 1.835-1.063 2.942-3.052 3.152z"/>
   <path d="m366.36 108.81h-1.989v4.188h-1.037v-10.352h2.858c2.843 0 3.992 0.966 3.992 3.138 0 1.961-1.008 3.026-3.824 3.026zm-0.518-5.225h-1.471v4.286h1.919c2.059 0 2.844-0.588 2.844-2.087 0-2.101-1.317-2.199-3.292-2.199z"/>
   <path d="m376.53 113.18c-3.096 0-5.435-2.297-5.435-5.323 0-3.096 2.283-5.393 5.365-5.393 2.143 0 3.964 1.093 4.762 2.872h-1.163c-0.882-1.387-2.101-1.919-3.558-1.919-2.465 0-4.356 1.905-4.356 4.398 0 2.423 1.975 4.412 4.37 4.412 1.513 0 2.507-0.574 3.6-1.947h1.148c-1.034 1.92-2.632 2.9-4.733 2.9z"/>
   <path d="m387.67 103.59v3.74h4.063v0.938h-4.063v4.735h-1.037v-10.352h5.253v0.938h-4.216z"/>
   <path d="m399.47 113-2.927-4.426-2.942 4.426h-1.218l3.516-5.295-3.32-5.057h1.219l2.746 4.146 2.731-4.146h1.205l-3.32 5.057 3.53 5.295z"/>
   <path d="m383.6 108.76c-0.42 0-0.755-0.336-0.755-0.756 0-0.419 0.335-0.755 0.755-0.755 0.408 0 0.756 0.336 0.756 0.755 0 0.42-0.348 0.756-0.756 0.756z"/>
  </g>
 </g>
</svg>
