<?xml version="1.0" encoding="UTF-8" standalone="no"?>
<svg xmlns:dc="http://purl.org/dc/elements/1.1/" xmlns:cc="http://creativecommons.org/ns#" xmlns:rdf="http://www.w3.org/1999/02/22-rdf-syntax-ns#" xmlns:svg="http://www.w3.org/2000/svg" xmlns="http://www.w3.org/2000/svg" viewBox="0 0 993.69336 480.84" height="480.84" width="993.69336" xml:space="preserve" version="1.1" id="svg2"><metadata id="metadata8"><rdf:RDF><cc:Work rdf:about=""><dc:format>image/svg+xml</dc:format><dc:type rdf:resource="http://purl.org/dc/dcmitype/StillImage"/></cc:Work></rdf:RDF></metadata><defs id="defs6"><clipPath id="clipPath18" clipPathUnits="userSpaceOnUse"><path id="path20" d="m 0,0 7452.72,0 0,3606 L 0,3606 0,0 Z"/></clipPath></defs><g transform="matrix(1.3333333,0,0,-1.3333333,0,480.84)" id="g10"><g transform="scale(0.1)" id="g12"><g id="g14"><g clip-path="url(#clipPath18)" id="g16"><path id="path22" style="fill:none;stroke:#eb222c;stroke-width:70;stroke-linecap:round;stroke-linejoin:round;stroke-miterlimit:4;stroke-dasharray:none;stroke-opacity:1" d="M 761.152,990.27 C 295.215,1216.41 24.0508,1488.76 35.3359,1774.36 53.7109,2245.16 834.258,2630.76 1974.17,2809.79"/><path id="path24" style="fill:none;stroke:#eb222c;stroke-width:70;stroke-linecap:round;stroke-linejoin:round;stroke-miterlimit:4;stroke-dasharray:none;stroke-opacity:1" d="m 3952.23,2905.08 c 408.59,-19.56 799.18,-61.04 1161.16,-120.49"/><path id="path26" style="fill:none;stroke:#eb222c;stroke-width:70;stroke-linecap:round;stroke-linejoin:round;stroke-miterlimit:4;stroke-dasharray:none;stroke-opacity:1" d="M 5478.79,2712.41 C 6646.01,2464.86 7432.58,2021.9 7417.5,1540.47 7397.03,882.391 5886.46,388.762 3982.29,393.871"/><path id="path28" style="fill:#eb222c;fill-opacity:1;fill-rule:nonzero;stroke:none" d="m 4645.49,2181.23 924.12,704.43 -1085.42,-433.26 -305.02,317.49 97.25,-439.94 -924.13,-704.42 1085.44,433.38 305.01,-317.5 -97.25,439.82"/><path id="path30" style="fill:#eb222c;fill-opacity:1;fill-rule:nonzero;stroke:none" d="m 2474.09,2547.16 72.59,390.47 272.21,43.18 c 35.7,5.65 53.95,-14.7 46.86,-52.37 l -49.62,-267.23 c -7.09,-37.79 -34.12,-65.22 -69.82,-70.87 l -272.22,-43.18 z m 3094.49,-1118.9 74.28,399.26 c 23.51,126.26 159.22,250.29 274.84,268.67 l 500.19,79.27 c 84.27,13.39 142.81,-80.72 125.61,-172.86 l -24.55,-128.49 c -17.19,-92.13 -111.29,-190.06 -195.55,-203.44 l -519.22,-82.42 -7.49,-46.59 c -9.84,-53.03 25.34,-94.38 73.9,-86.63 l 580.38,92.41 -39.11,-210.54 -654.67,-103.82 c -115.63,-18.37 -211.98,68.78 -188.61,195.18 z M 4271.29,1835 l 209.1,33.07 -160.53,-863.1 -213.79,-33.868 160.38,862.978 4.84,0.92 z M 2880.97,776.719 l -213.94,-33.84 104.22,560.431 c 13.12,70.22 -8.14,93.04 -75.86,82.29 l -372.76,-59.21 -122.19,-657.55 -213.94,-33.988 160.39,863.098 4.99,0.79 709.66,112.6 c 107.37,17.07 165.64,-48.03 144.51,-161.56 L 2880.97,776.719 Z m -1027.42,56.449 -42.01,-226.02 -894.462,-141.878 278.772,1500.19 738.94,117.2 -38.2,-205.53 -525,-83.35 -80.19,-431.55 427.75,67.86 -38.2,-205.42 -427.74,-67.85 -80.32,-431.672 680.66,108.02 z m 30.58,164.453 -505.58,-80.18 19.03,102.619 408.32,64.85 99.36,534.31 -408.32,-64.84 19.03,102.77 505.57,80.2 -137.41,-739.729 z m 1121.92,-360.543 3.29,17.981 c 13.91,-1.039 32.54,-6.43 48.81,-3.938 l 420.4,65.891 C 3462.93,633.129 3352.16,612.129 3183.11,585.379 L 2990.7,554.781 2887.53,0 3140.32,40.0312 C 3762.7,101.449 3999.5,423.129 4075.47,806.66 l 758.36,120.352 122.19,657.568 61.7,9.84 c 67.6,10.76 57.62,22.97 44.63,-47.26 l -111.84,-601.648 544.44,86.368 7.47,39.9 c 41.09,-18.11 89.13,-24.55 139.93,-16.53 l 941.57,149.36 87.81,472.62 -61.03,43.46 c 52.9,62.6 94.1,139.25 106.05,203.56 l 14.83,74.55 c 46.99,278.77 -210,352.8 -327.34,334.16 l -540.35,-85.71 c -95.69,-15.22 -201.07,-81.89 -277.72,-170.23 -70.88,70.22 -180.34,97.52 -244,87.42 l -601.52,-95.42 67.33,-148.84 542.59,85.97 c 78.22,12.46 130.45,-18.77 144.77,-80.72 -5.77,-16.41 -144.77,-756.92 -144.77,-756.92 l -194.52,-30.85 104.23,560.57 c 12.99,70.21 -8.27,92.93 -75.87,82.17 l -372.76,-59.2 -122.31,-657.56 -213.82,-34 139.92,752.86 -176.01,207.64 -633.67,-229.04 300.31,47.65 4.84,0.65 -190.96,-1027.412 c -48.57,-261.07 -327.08,-510.578 -574.1,-549.82 l -252.78,-40.039 38.33,205.551 192.28,30.449 c 169.05,26.902 359.36,196.07 392.17,373.012 l 20.74,111.3 -500.72,-79.41 c -107.36,-17.062 -165.64,48.168 -144.5,161.578 l 89.77,483.001 c 15.88,85.83 69.43,157.1 141.1,194.11 l 1.17,12.88 251.21,193.32 -146.73,-24.68 c -78.09,-12.34 -222.87,-70.87 -314.87,-188.21 -69.56,82.94 -191.23,115.5 -259.74,104.61 l -539.71,-85.71 87.95,472.76 393.75,62.48 c 209.6,33.2 441.52,268.93 482.73,490.34 l 59.2,318.55 c 41.21,221.55 -114.58,395.72 -324.19,362.51 l -860.48,-136.5 -183.35,-986.47 -792.36,-125.74 c -67.06,-10.63 -132.3,-76.78 -145.42,-147.66 L 735.293,401.48 c -13.125,-70.871 30.582,-119.82 97.652,-109.199 l 1511.875,239.93 122.32,657.569 61.56,9.84 c 67.72,10.63 57.75,22.83 44.62,-47.39 l -111.83,-601.511 544.56,86.359 z m 2838.02,1165.632 -4.59,-24.94 404.5,64.18 c 31.9,5.13 63.02,37.41 69.58,72.32 6.43,34.91 -14.18,59.07 -46.07,53.95 l -103.97,-16.41 -165.74,-26.38 -42.01,-6.56 c -48.57,-7.75 -101.86,-63.13 -111.7,-116.16 z m -2489.42,-406.86 -47.91,-257.79 c -13.12,-70.34 8.14,-93.05 75.87,-82.29 l 392.16,62.2 84.01,452.04 -392.17,-62.09 c -67.73,-10.76 -98.96,-41.73 -111.96,-112.07 z m 133.48,-93.99 c 13.26,65.24 37.41,55.78 103.56,66.27 l 61.56,9.73 -19.16,-102.64 -61.57,-9.84 c -66.14,-10.51 -95.28,-28.23 -84.39,36.48"/><path id="path32" style="fill:#eb222c;fill-opacity:1;fill-rule:nonzero;stroke:none" d="m 4214.08,2364.46 -57.76,228.9 -32.55,-3.94 -10.48,-56.44 c -7.22,-39.11 -38.73,-71 -75.62,-76.91 l -223.63,-35.44 c -36.89,-5.9 -58.03,17.72 -50.79,56.83 l 112.73,606.25 c 7.22,38.98 38.71,70.88 75.6,76.78 l 223.65,35.44 c 36.87,5.91 58.02,-17.72 50.78,-56.71 l -14.43,-77.17 452.17,71.8 17.19,92.4 c 43.3,233.23 -115.24,410.55 -336.01,375.63 l -432.59,-68.64 c -220.64,-35.04 -456.89,-274.97 -500.2,-508.19 l -120.35,-647.33 c -43.32,-233.23 115.23,-410.55 336,-375.51 l 144.63,22.84 441.66,339.41"/><path id="path34" style="fill:#eb222c;fill-opacity:1;fill-rule:nonzero;stroke:none" d="m 4534.58,2502.53 c 11.83,31.77 19.96,43.84 26.01,76.39 l 15.35,82.29 -179.96,-28.61 138.6,-130.07"/></g></g></g></g></svg>