<?xml version="1.0" encoding="UTF-8" standalone="no"?>
<!-- Created with Inkscape (http://www.inkscape.org/) -->

<svg
   version="1.1"
   id="svg1"
   width="981.56"
   height="245"
   viewBox="0 0 981.56 245"
   sodipodi:docname="vectrex-seeklogo.eps"
   xmlns:inkscape="http://www.inkscape.org/namespaces/inkscape"
   xmlns:sodipodi="http://sodipodi.sourceforge.net/DTD/sodipodi-0.dtd"
   xmlns="http://www.w3.org/2000/svg"
   xmlns:svg="http://www.w3.org/2000/svg">
  <defs
     id="defs1" />
  <sodipodi:namedview
     id="namedview1"
     pagecolor="#ffffff"
     bordercolor="#000000"
     borderopacity="0.25"
     inkscape:showpageshadow="2"
     inkscape:pageopacity="0.0"
     inkscape:pagecheckerboard="0"
     inkscape:deskcolor="#d1d1d1">
    <inkscape:page
       x="0"
       y="0"
       inkscape:label="1"
       id="page1"
       width="981.56"
       height="245"
       margin="0"
       bleed="0" />
  </sodipodi:namedview>
  <g
     id="g1"
     inkscape:groupmode="layer"
     inkscape:label="1">
    <g
       id="group-R5">
      <path
         id="path2"
         d="m 3093.5,2503.7 c -191.3,-191.4 -191.3,-501.6 0,-693 191.4,-191.3 501.6,-191.3 693,0 165.5,165.5 187.8,419.9 67.1,609.4 L 3590,2156.5 c -0.2,-38.2 -14.8,-76.3 -43.9,-105.4 -58.6,-58.5 -153.6,-58.5 -212.2,0 -58.5,58.6 -58.5,153.6 0,212.2 58.6,58.5 153.6,58.5 212.2,0 l 4.5,-4.8 240.5,240.5 -4.6,4.7 c -191.4,191.3 -501.6,191.3 -693,0"
         style="fill:#231f20;fill-opacity:1;fill-rule:nonzero;stroke:none"
         transform="matrix(0.13333333,0,0,-0.13333333,0,466.29333)" />
      <path
         id="path3"
         d="m 1184.3,1669.2 1184.3,1348.1 h -494.2 l -757,-770.7 c -23.1,-23.5 -60.6,-23.5 -83.7,0 -23.1,23.5 -23.1,61.7 0,85.3 L 1707,3017.3 H 0 L 1184.3,1669.2"
         style="fill:#231f20;fill-opacity:1;fill-rule:nonzero;stroke:none"
         transform="matrix(0.13333333,0,0,-0.13333333,0,466.29333)" />
      <path
         id="path4"
         d="m 6469.7,2159.4 -410.1,-482.2 h 335.1 l 319.3,325.1 c 18.5,18.8 48.5,18.8 67,0 18.5,-18.8 18.5,-49.3 0,-68.2 L 6528.7,1677.2 H 7290 l -410.1,482.2 410.1,482.2 h -335.1 l -319.3,-325.1 c -18.5,-18.9 -48.5,-18.9 -67,0 -18.5,18.8 -18.5,49.3 0,68.2 l 252.3,256.9 h -761.3 l 410.1,-482.2"
         style="fill:#231f20;fill-opacity:1;fill-rule:nonzero;stroke:none"
         transform="matrix(0.13333333,0,0,-0.13333333,0,466.29333)" />
      <path
         id="path5"
         d="m 4582.1,2641.6 v -964.4 h 307.8 V 2304 h 233.4 l 287.1,337.6 h -335.1 l -319.4,-325.1 c -18.4,-18.9 -48.4,-18.9 -66.9,0 -18.5,18.8 -18.5,49.3 0,68.2 l 252.3,256.9 h -359.2"
         style="fill:#231f20;fill-opacity:1;fill-rule:nonzero;stroke:none"
         transform="matrix(0.13333333,0,0,-0.13333333,0,466.29333)" />
      <path
         id="path6"
         d="m 4352.6,2637.5 h 186 l 307.2,317.5 h -493.2 v 542.2 l -750.3,-859.7 h 328.1 l 224.7,208.7 c 18.5,18.8 48.5,18.8 66.9,0 18.5,-18.9 18.5,-49.4 0,-68.2 l -177.2,-180.5 v -920.3 h 307.8 v 960.3"
         style="fill:#231f20;fill-opacity:1;fill-rule:nonzero;stroke:none"
         transform="matrix(0.13333333,0,0,-0.13333333,0,466.29333)" />
      <path
         id="path7"
         d="m 2251.5,2099.4 c -22.7,54.4 -11.9,119.6 32.4,163.9 44.3,44.3 109.5,55.1 163.9,32.4 z m -208,404.3 c -191.3,-191.4 -191.3,-501.6 0,-693 191.4,-191.3 501.6,-191.3 693,0 165.5,165.5 187.8,419.9 67.1,609.4 L 2540,2156.5 c -0.2,-38.2 -14.8,-76.3 -43.9,-105.4 -48.1,-48 -120.6,-56.6 -177.4,-25.9 l 446.8,446.8 c -7.7,9.2 -56.9,58 -71.7,69.7 -192.3,152.4 -472.6,139.7 -650.3,-38"
         style="fill:#231f20;fill-opacity:1;fill-rule:nonzero;stroke:none"
         transform="matrix(0.13333333,0,0,-0.13333333,0,466.29333)" />
      <path
         id="path8"
         d="m 5591.5,2099.4 c -22.7,54.4 -11.9,119.6 32.4,163.9 44.3,44.3 109.5,55.1 163.9,32.4 z m -208,404.3 c -191.3,-191.4 -191.3,-501.6 0,-693 191.4,-191.3 501.6,-191.3 693,0 165.5,165.5 187.8,419.9 67.1,609.4 L 5880,2156.5 c -0.2,-38.2 -14.8,-76.3 -43.9,-105.4 -48.1,-48 -120.6,-56.6 -177.4,-25.9 l 446.8,446.8 c -7.7,9.2 -56.9,58 -71.7,69.7 -192.3,152.4 -472.6,139.7 -650.3,-38"
         style="fill:#231f20;fill-opacity:1;fill-rule:nonzero;stroke:none"
         transform="matrix(0.13333333,0,0,-0.13333333,0,466.29333)" />
      
    </g>
  </g>
</svg>
