<svg xmlns="http://www.w3.org/2000/svg" viewBox="0 0 94.2 26.6">
  <path d="M89.8 0h1.8v.3h-.7v2h-.4v-2h-.7zm2.1 0h.6l.5 1.9.6-1.9h.6v2.3h-.4V.4l-.6 1.9h-.4L92.2.4v1.9h-.4V0z" fill="#8c8c8c"/>
  <path d="M0 0h88.3v26.6H0z" fill="none"/>
  <path d="M41.4 0c1.8 0 3.2 1.3 3.2 3s-1.4 3-3.2 3c-1.7 0-3.1-1.4-3.1-3s1.4-3 3.1-3m-2.6 9.1v17.3h5.3V9.1zM49.2 3c0 1.7 1.4 3 3.1 3 1.8 0 3.2-1.3 3.2-3s-1.4-3-3.2-3c-1.7 0-3.1 1.4-3.1 3m.5 6.1v17.3H55V9.1zM30.3 1.5l-4.7 18.4S22 6.1 21.4 4.1s-1.8-2.8-3.5-2.8-2.9.9-3.5 2.8c-.6 2-4.2 15.8-4.2 15.8L5.6 1.5H0s5.4 19.6 6.2 21.9c.6 1.8 1.9 3.2 3.9 3.2 2.3 0 3.4-1.7 3.9-3.2s4-14.5 4-14.5 3.5 13 4 14.5 1.6 3.2 3.9 3.2c2 0 3.4-1.5 3.9-3.2.8-2.3 6.2-21.9 6.2-21.9z" fill="#8c8c8c"/>
  <path d="M75 13.2c2 0 3.5-1.6 3.5-4V0h-7v9.2c0 2.5 1.5 4 3.5 4M84.8 0h-3v9.3c0 4.5-2.6 6.9-6.8 6.9s-6.8-2.4-6.8-6.9V0h-3c-2.2 0-3.5 1.3-3.5 3.5v11.4c0 3.3 1.7 5 5 5h16.5c3.3 0 5-1.7 5-5V3.5C88.3 1.3 87 0 84.8 0" fill="#0096c8"/>
</svg>
